<?xml version="1.0" encoding="UTF-8"?><svg xmlns="http://www.w3.org/2000/svg" viewBox="0 0 509.73 148.66"><defs><style>.d{fill:#fff;}</style></defs><g id="a"/><g id="b"><g id="c"><g><g><path class="d" d="M8.84,138.28h1.51v8.92h4.76v1.34h-6.27v-10.26Z"/><path class="d" d="M18,138.28h1.51v10.26h-1.51v-10.26Z"/><path class="d" d="M30.1,138.28h1.51l-4.47,10.3h-.34l-4.55-10.3h1.52l3.18,7.2,3.16-7.2Z"/><path class="d" d="M34.31,138.28h5.99v1.31h-4.48v3.13h4.33v1.31h-4.33v3.19h4.62v1.31h-6.13v-10.24Z"/><path class="d" d="M51.28,138.22h1.06l4.74,10.32h-1.55l-1.41-3.04h-4.51l-1.32,3.04h-1.55l4.54-10.32Zm2.22,5.97l-1.7-3.72-1.58,3.72h3.29Z"/><path class="d" d="M65.65,138.28h5.64v1.31h-4.12v2.86h4.12v1.31h-4.12v4.78h-1.51v-10.26Z"/><path class="d" d="M81.8,138.28h1.52v5.82c0,.79-.06,1.38-.18,1.78-.12,.4-.26,.74-.44,1-.17,.27-.39,.51-.64,.72-.84,.7-1.93,1.05-3.28,1.05s-2.48-.35-3.31-1.04c-.25-.22-.46-.46-.64-.72-.17-.27-.32-.59-.43-.98-.11-.39-.17-.99-.17-1.82v-5.81h1.52v5.82c0,.96,.11,1.63,.34,2.01,.23,.38,.57,.68,1.04,.91,.46,.23,1.01,.34,1.64,.34,.9,0,1.63-.23,2.19-.68,.3-.24,.51-.53,.64-.87,.13-.33,.2-.9,.2-1.71v-5.82Z"/><path class="d" d="M86.97,138.28h1.51v8.92h4.76v1.34h-6.27v-10.26Z"/><path class="d" d="M96.11,138.28h1.51v8.92h4.76v1.34h-6.27v-10.26Z"/><path class="d" d="M111.1,138.28h1.51v8.92h4.76v1.34h-6.27v-10.26Z"/><path class="d" d="M120.26,138.28h1.51v10.26h-1.51v-10.26Z"/><path class="d" d="M125.68,138.28h5.64v1.31h-4.12v2.86h4.12v1.31h-4.12v4.78h-1.51v-10.26Z"/><path class="d" d="M134.48,138.28h5.99v1.31h-4.48v3.13h4.33v1.31h-4.33v3.19h4.62v1.31h-6.13v-10.24Z"/></g><path class="d" d="M500.27,118.39c-25.38-4.07-37.45-37.38-39.25-42.78h20.41c5.55,19.1,23.81,38.28,28.29,42.78h-9.46Zm-121.74,0c4.48-4.5,22.74-23.68,28.29-42.78h20.41c-1.8,5.39-13.87,38.67-39.29,42.78h-9.41Zm-248.75-.52c-.54,0-.99-.38-.99-.85v-12.31c0-.47,.44-.85,.99-.85h45.73v-23.04h-36.79c-.54,0-.99-.38-.99-.85v-12.6c0-.47,.44-.85,.99-.85h90.52c3.12,0,5.65,2.28,5.65,5.08v8.29c0,.47-.44,.85-.99,.85h-36.73v23.06h45.31c.54,0,.99,.38,.99,.85v12.36c0,.47-.44,.85-.99,.85h-112.7Zm-42.57-.03c-1.79,0-3.48-.88-4.54-2.35l-5.99-8.31,7.42-.11h.57l.03-11.04-54.42-.39v22.21H9.93V57.45c0-.57,.45-1.03,.99-1.03H99.54c3.12,0,5.65,2.6,5.65,5.8v54.59c0,.56-.43,1.02-.98,1.02h-17Zm-19.37-32.79h16.79l.06-17.25h-16.85v17.25Zm-37.51,0h16.4v-17.25H30.35v17.25Zm295.29,32.27c-8.33-1.7-12.43-17.06-13.25-20.51h10.93c3.18,11.68,6.85,18.24,8.27,20.51h-5.95Zm-47.62,0c1.6-2.4,5.53-9.34,6.13-20.51h10.82c-.82,3.44-4.92,18.74-13.31,20.51h-3.64Zm70.07,0c-1.78,0-3.48-.88-4.54-2.34l-6.02-8.32,12.24-.11V52.94h-20.91c-.55,0-.99-.46-.99-1.03v-14.6c0-.57,.44-1.03,.99-1.03h20.88v-7.91c0-.57,.44-1.03,.99-1.03h14.14c.55,0,.99,.46,.99,1.03v7.83h.93c3.12,0,5.65,2.6,5.65,5.8v9.83c0,.57-.44,1.03-.99,1.03h-5.56v63.44c0,.56-.44,1.02-.99,1.02h-16.83Zm-75.04,0c-2.93-.03-5.83-.03-8.76-.03h-6.21c.33-.88,.63-1.69,.92-2.49,2.1-5.81,3.47-12.37,4.34-20.63,.82-7.89,.82-15.89,.82-23.63V28.96c0-.57,.45-1.03,.99-1.03h51.43c3.12,0,5.65,2.6,5.65,5.8v22.37c0,.57-.45,1.03-.99,1.03h-42.71v3.35c0,2.29,0,4.59,.02,6.88,.02,3.99,.02,8.08-.04,12.15v.58h39.23c3.12,0,5.65,2.6,5.65,5.8v3.86c0,.57-.45,1.03-.99,1.03h-12.73v26.31h-11.91v-26.22h-19.68l-.04,.53c-.74,9.84-2.37,18.31-4.99,25.88l-.02,.06Zm5.58-70.26h28.67v-9h-28.67v9Zm174.39,70.21c-3.21-.02-6.4-.02-9.58-.02h-10.02v-45.84h-.03s.02-42.46,.03-46.66c0-.75-.09-1.71-.81-2.45-.73-.75-1.72-.84-2.4-.84-9.09,.02-18.16,.03-27.23,.03h-14.79c-.54,0-.99-.46-.99-1.03V7.02c0-.56,.44-1.02,.99-1.02h45.19V0h19.51l.06,5.9h39.96c3.12,0,5.65,2.6,5.65,5.8v8.74c0,.56-.44,1.02-.99,1.02h-42.41c-1.18,0-2.13,.97-2.13,2.17V117.27Zm-110.9-20.14c-12-1.95-15.61-28.93-16.12-33.41h15.24c.3,11.33,4.72,29.59,5.68,33.41h-4.79Zm-57.18-22.92c-.25,0-.49-.1-.67-.28-.2-.2-.3-.46-.3-.75l.02-8.43c0-.57,.45-1.03,.99-1.03h29.88c3.12,0,5.65,2.6,5.65,5.8v3.63c0,.57-.45,1.03-.99,1.03l-34.57,.02Zm110.98-5.24c-3.94,0-7.33-.39-9.41-.7,17.53-6.9,19.15-14.07,19.21-14.38l.14-.71-.72-.02c-1.94-.06-4.22-1.88-5.49-3.06,1.77-.24,3.98-1,4.09-1.04l2.75-1.14-1.45-.54c-4.04-1.51-9.67-14.36-12.36-21.37,6.9,5.4,25.66,15.71,26.54,16.19l.51,.28,.31-.49s2.54-4.05,6.94-4.05c.39,0,.8,.03,1.23,.1,1.18,.19,3.18,1.6,3.62,3.37l.11,.44,.46,.02s.41,.05,1.03,.54c-1.96,.53-5.9,2.33-7.52,8.37-4.03,15.03-18.52,18.19-29.98,18.19Zm65.14,0c-3.94,0-7.33-.39-9.41-.7,17.53-6.9,19.15-14.07,19.21-14.38l.14-.71-.72-.02c-1.94-.06-4.22-1.88-5.49-3.06,1.77-.24,3.98-1,4.09-1.04l2.75-1.14-1.45-.54c-4.04-1.51-9.67-14.36-12.36-21.37,6.9,5.4,25.66,15.71,26.54,16.19l.51,.28,.31-.49s2.54-4.05,6.94-4.05c.39,0,.8,.03,1.23,.1,1.18,.19,3.18,1.6,3.62,3.37l.11,.44,.46,.02s.41,.05,1.03,.54c-1.96,.53-5.9,2.33-7.52,8.37-4.03,15.03-18.52,18.19-29.98,18.19Zm-235.86-9.7c-22.89-2.42-32.32-23.97-33.99-28.28h24.1c3.16,14.27,14.86,25.02,18.77,28.28h-8.88Zm-86.78,0c3.92-3.27,15.61-14.02,18.77-28.28h24.1c-1.67,4.31-11.09,25.85-34.02,28.28h-8.85ZM.99,49.96c-.54,0-.99-.46-.99-1.03v-8.52c0-.56,.44-1.02,.99-1.02H46.68v-6.04H7.78c-.54,0-.99-.46-.99-1.03v-8.79c0-.56,.44-1.02,.99-1.02H46.71v-6.15H4.95c-.54,0-.99-.46-.99-1.03V6.49c0-.56,.44-1.02,.99-1.02H46.74V.54h20.96V5.4h41.3c.54,0,.99,.46,.99,1.03V15.2c0,.57-.44,1.03-.99,1.03h-41.15v6.19h38.62c.54,0,.99,.46,.99,1.03v8.78c0,.57-.44,1.03-.99,1.03h-38.62v6.07h45.44c.54,0,.99,.46,.99,1.03v8.58c0,.57-.44,1.03-.99,1.03H.99ZM223.01,31.7v-9.57h-72.99v9.52h-19.02V8.02c0-.57,.44-1.03,.99-1.03h42.1l-1.39-6.45h11.1c4.76,0,9.51,0,14.27-.02,.16,.63,.35,1.24,.55,1.85,.2,.64,.4,1.24,.54,1.86,.37,1.63,1.76,2.77,3.38,2.77,3.9-.03,7.74-.03,11.57-.03h22.06c3.12,0,5.65,2.61,5.65,5.81V31.7h-18.81Zm109.93-9.33v-4.42h-31.05v4.39h-20.54v-4.43h-18.95c-.55,0-.99-.46-.99-1.03V7.14c0-.57,.44-1.03,.99-1.03h18.85V1.08h20.61V5.98h31.03V1.06h20.43V6.04h18.13c.54,0,.99,.46,.99,1.03v9.73c0,.57-.44,1.03-.99,1.03h-18.09v4.55h-20.43Z"/><rect class="d" x="152.3" y="143.6" width="94.56" height="1.12"/></g></g></g></svg>