<?xml version="1.0" encoding="UTF-8"?><svg xmlns="http://www.w3.org/2000/svg" viewBox="0 0 96.8 18.37"><defs><style>.d{fill:#fff;}</style></defs><g id="a"/><g id="b"><g id="c"><g><path class="d" d="M7.91,18.29v-4.66c-1.78,1.92-3.88,3.39-6.31,4.43-.52-.81-1.06-1.46-1.61-1.96,1.11-.38,2.21-.9,3.31-1.56,1.1-.66,2.05-1.37,2.86-2.14H2.21V4.92H7.91v-1.12H.55V1.63H7.91V.02h2.41V1.63h7.54V3.8h-7.54v1.12h5.97v7.48h-4.21c.84,.76,1.81,1.47,2.94,2.12,1.12,.66,2.25,1.18,3.39,1.56-.6,.51-1.16,1.18-1.66,2.02-1.14-.48-2.27-1.12-3.39-1.92-1.12-.8-2.13-1.68-3.04-2.64v4.76h-2.41ZM4.46,7.81h3.45v-1.16h-3.45v1.16Zm0,2.84h3.45v-1.19h-3.45v1.19Zm5.86-2.84h3.6v-1.16h-3.6v1.16Zm0,2.84h3.6v-1.19h-3.6v1.19Z"/><path class="d" d="M21.8,18.29V8.42c-.29,.4-.67,.86-1.14,1.37-.12-.29-.31-.69-.57-1.2-.27-.52-.5-.92-.69-1.19,.86-.89,1.68-1.98,2.45-3.27,.77-1.32,1.39-2.67,1.86-4.05l2.19,.69c-.51,1.4-1.11,2.74-1.8,4.01v13.51h-2.31Zm3.07-.63v-2.23h5.38v-2.35h-4.31v-2.21h4.31v-1.72h2.37v1.72h4.43v2.21h-4.43v2.35h5.27v2.23h-13.02Zm.57-9.09v-2.19h4.82v-2.04h-3.92V2.17h3.92V0h2.37V2.17h4.03v2.17h-4.03v2.04h4.91v2.19h-12.1Z"/><path class="d" d="M41.28,18.29c-.5-.51-1.11-1.06-1.84-1.65,.89-.33,1.82-.76,2.8-1.29,.98-.52,1.79-1.03,2.43-1.51h-5.27v-2.13h1.65l-.31-10.75,1.57,.29c.8-.48,1.39-.89,1.78-1.21l.71,.84h7.11V11.71h1.86c.01-.21,.03-.54,.06-.98,.01-.38,.03-.67,.04-.86h-1.49v-1.84h1.57c.03-.73,.04-1.29,.06-1.67h-1.63v-1.86h1.67c0-.2,0-.48,0-.86,0-.38,0-.66,0-.84h-1.74V.92h3.78c-.05,4.03-.18,7.63-.37,10.79h1.57v2.13h-5.56c2.05,.94,3.91,1.89,5.58,2.84l-2.27,1.61c-1.84-1.21-3.66-2.24-5.44-3.08l1.55-1.37h-6.05l1.88,1.33c-.74,.55-1.66,1.12-2.74,1.7-1.04,.57-2.02,1.04-2.94,1.41Zm1.72-6.58h1.78V2.19c-.5,.24-1.17,.52-2.02,.84l.04,1.47h1.51v1.86h-1.47l.06,1.67h1.41v1.84h-1.37l.06,1.84Zm3.41,0h3.8V2.62h-3.8V11.71Zm.43-6.68v-1.43h2.9v1.43h-2.9Zm.06,5.31V5.91h2.74v4.43h-2.74Zm.94-1.33h.84v-1.74h-.84v1.74Z"/><path class="d" d="M60.39,18.37c-.17-.24-.44-.52-.81-.85-.37-.33-.68-.57-.93-.71,.93-.65,1.69-1.53,2.29-2.62-.72-.98-1.33-2.25-1.84-3.8l1.82-.67c.23,.8,.55,1.53,.96,2.21,.3-1.02,.53-2.11,.69-3.29h-1.33l-.25,.57-2.12-.55c.77-1.58,1.61-3.43,2.51-5.54h-2.55V1.08h3.58l.35-.08,1.59,.43c-.54,1.37-1.27,3.09-2.19,5.17h.98l.41-.06,1.37,.31c-.23,2.75-.7,5.08-1.39,6.97,.85,.67,1.91,1.14,3.19,1.41,1.02,.22,2.34,.34,3.96,.35,3.42,0,5.61-.02,6.56-.06-.35,.51-.65,1.27-.9,2.27h-5.72c-1.8,0-3.3-.13-4.48-.39-1.4-.3-2.58-.82-3.56-1.57-.59,1.02-1.31,1.86-2.17,2.53Zm8.79-3.33v-1.59h-4.64v-1.82h4.64v-.92h-3.8v-1.68h3.8v-.86h-3.68v-1.76h3.68v-.8h-4.91v-1.78h4.91v-.8h-3.58V1.25h3.58V.14h2.27V1.25h4.07V3.82h1.47v1.78h-1.47v2.57h-4.07v.86h4.23v1.68h-4.23v.92h5.13v1.82h-5.13v1.59h-2.27Zm2.27-11.22h1.78v-.8h-1.78v.8Zm0,2.58h1.78v-.8h-1.78v.8Z"/><path class="d" d="M78.35,5.07v-1.84h7.66v1.84h-7.66Zm8.15,13.2c-.3-.72-.71-1.39-1.21-2.02v1h-4.09v.76h-1.98v-6.68h6.07v4.88c1.53-.39,2.85-.95,3.96-1.68-.87-.95-1.62-2.08-2.25-3.39l2-.65h-2.72v-2.1h.67c-.43-.5-.97-.97-1.62-1.41v.74h-6.03v-1.78h6.03v.94c.76-.52,1.29-1.17,1.59-1.96,.21-.55,.31-1.23,.31-2.06V.55h6.56V4.94c0,.27,.02,.44,.05,.51,.03,.07,.1,.1,.21,.1h.49c.13,0,.22-.11,.27-.33,.04-.26,.07-.8,.08-1.62,.41,.31,1.04,.59,1.9,.82-.09,1.2-.29,2.02-.59,2.47-.29,.43-.76,.65-1.43,.65h-1.14c-.78,0-1.32-.18-1.6-.54-.28-.36-.42-1.03-.42-2.01V2.6h-2.19v.33c0,2.53-.81,4.35-2.43,5.46h6.89l.39-.1,1.53,.57c-.6,2.26-1.61,4.16-3.02,5.7,1.16,.74,2.51,1.31,4.03,1.68-.56,.55-1.06,1.22-1.51,2.02-1.61-.48-3.04-1.2-4.31-2.13-1.28,.9-2.77,1.61-4.48,2.13Zm-7.23-7.89v-1.74h6.03v1.74h-6.03Zm.08-8.01V.61h5.91v1.76h-5.91Zm1.84,13.06h2.08v-2.25h-2.08v2.25Zm9.75-2.29c.76-.76,1.37-1.64,1.84-2.64h-3.74c.46,.95,1.09,1.83,1.9,2.64Z"/></g></g></g></svg>