<?xml version="1.0" encoding="utf-8"?>
<!-- Generator: Adobe Illustrator 26.1.0, SVG Export Plug-In . SVG Version: 6.00 Build 0)  -->
<svg version="1.1" id="a" xmlns="http://www.w3.org/2000/svg" xmlns:xlink="http://www.w3.org/1999/xlink" x="0px" y="0px"
	 viewBox="0 0 16.2 11" style="enable-background:new 0 0 16.2 11;" xml:space="preserve">
<style type="text/css">
	.st0{fill:#FFFFFF;}
</style>
<path class="st0" d="M8.6,6.3c0,0-0.1-0.2-0.2-0.2c0,0-0.2-0.1-0.2,0s0,0.2-0.1,0.1c0,0,0-0.2-0.2-0.2S7.8,6,7.7,6H7.6l0,0
	c-0.1,0,0,0-0.1,0S7.3,6,7.3,5.9c0,0,0.1,0,0,0s0,0-0.2,0C7,5.9,7,5.8,6.9,5.9s0,0-0.1,0s-0.1,0-0.2-0.1S6.5,5.6,6.4,5.6
	c0,0,0,0-0.1,0l0,0c0,0,0,0-0.1-0.1s0,0-0.1,0s-0.1,0-0.2,0c0,0,0,0-0.2,0c-0.1,0-0.2-0.1-0.2-0.2s0-0.2-0.1-0.2c0,0-0.2,0-0.3,0
	S5,4.9,4.9,4.9c0,0,0,0-0.2,0c-0.1,0-0.1,0-0.2,0s-0.1,0-0.2-0.1c0,0-0.1,0-0.1-0.1c0,0,0,0,0-0.1c0,0,0,0-0.2,0c-0.1,0-0.2,0-0.2,0
	S3.6,4.5,3.6,4.4c0,0,0,0-0.1-0.1c0,0,0,0-0.1,0S3.1,4.2,3,4.1C2.9,4,2.9,3.9,2.8,3.8s-0.1,0-0.2-0.1c-0.1,0-0.4-0.2-0.4-0.3
	c0,0,0-0.1,0-0.2c0,0-0.5-0.4-0.7-0.6C1.3,2.5,1,2.2,0.9,2.1S0,1.2,0,1s0-0.1,0.1,0c0.2,0,0.2,0.2,0.5,0.4s0.3,0.3,0.5,0.4
	S1.4,2,1.6,2.1c0.2,0,0.3,0.1,0.4,0.2c0.1,0,0.2,0,0.4,0.1c0.2,0,1,0.4,1.4,0.4c0.3,0,0.7,0,1.1,0.1s1.7,0.3,2.3,0.6
	C7.7,3.8,8.8,4,8.8,4.1c0,0,0.1,0,0.3-0.3C9.3,3.6,9.5,3.1,9.6,3s0-0.3,0.2-0.3c0.1,0,0.3-0.1,0.4,0c0.2,0,0.4,0.1,0.4,0.3
	s0,0.3,0,0.3s0.1,0.1,0.1,0.3s0,0,0,0s0.4,0.4,0.5,0.5c0,0,0-0.3,0.2-0.3s0.3,0,0.5,0c0.1,0,0.6-0.2,0.7-0.3
	c0.2-0.1,0.7-0.4,0.8-0.5s0.4-0.4,0.5-0.6c0.1-0.2,0.3-0.6,0.4-0.8c0-0.1,0.1-0.3,0.2-0.4s0,0,0.2-0.1c0.1,0,0.3-0.2,0.3-0.2
	s0-0.1,0.2-0.2c0,0,0.1,0,0.2-0.1c0-0.1,0,0,0.2-0.2c0.1,0,0-0.1,0.3-0.2c0.2,0,0.2-0.1,0.3,0c0.1,0,0.1,0,0.1,0.1
	c0,0.2,0,0.4,0,0.5s0,0.3-0.1,0.6s0,0.1-0.2,0.4c-0.3,0.3-0.2,0.2-0.4,0.4s0,0-0.5,0.5c-0.6,0.4-0.9,0.7-1.1,0.7
	c-0.2,0-0.5,0.3-0.6,0.4c-0.1,0-0.7,0.3-0.8,0.5c-0.2,0.2-0.3,0.4-0.4,0.6c0,0.1-0.1,0.2-0.3,0.4c-0.2,0.2-0.3,0.3-0.3,0.3
	s-0.2,0.1-0.2,0.2s-0.2,0.5-0.1,0.7c0,0.2,0,0.4,0,0.6s-0.2,0.3-0.1,0.4c0,0,0.1,0.1,0.2,0.1c0,0,2.3,0.6,2.3,0.7c0,0,0.2,0.3,0,0.3
	s-0.3,0-0.3,0.1s0,0.2,0,0.3c0,0,0,0.2,0,0.3c0,0-0.2,0-0.2,0.2c0,0,0,0.1-0.2,0.1c-0.1,0-0.2,0-0.3,0c0,0-0.1,0-0.1,0.1
	s0,0.2-0.1,0.2s0,0-0.2,0c0,0-0.1,0.1-0.2,0.1c0,0-0.2,0-0.3,0c0,0.1,0,0.2-0.1,0.3c0,0.1-0.1,0.1-0.2,0.2c-0.1,0-0.1,0-0.2,0.1
	c0,0-0.3,0.2-0.5,0.2s-0.4,0-0.5,0s-0.1,0-0.3,0.1c-0.1,0-0.3,0-0.5,0s-0.2,0.1-0.3,0c0-0.1,0-0.3,0-0.3s0-0.2-0.1,0
	c0,0.2-0.1,0.2-0.1,0.3c0,0,0,0-0.2,0c-0.1,0-0.2,0.2-0.4,0.1c-0.2,0,0-0.2-0.2-0.2s-0.2,0-0.2,0s0,0-0.1-0.1v-0.2
	c-0.2,0-0.2,0-0.2,0s0,0,0-0.2c0,0,0,0,0-0.2s0-0.2,0-0.3s0-0.3-0.1-0.2c0,0-0.1,0.1-0.1,0.2c0,0.1,0,0.2,0,0.3c0,0.2,0,0.3-0.2,0.2
	c-0.2,0-0.3-0.2-0.4-0.3C6.8,9.8,6.6,9.8,6.5,9.7c-0.1,0-0.2-0.1-0.2-0.2c0,0,0-0.1,0-0.2c0,0-0.2,0-0.2-0.2c0,0-0.2,0-0.2-0.2
	c0-0.1,0-0.1,0-0.2s0,0,0-0.1s0,0.1-0.2-0.1C5.6,8.2,5.7,8,5.7,8s0,0,0.2-0.1c0,0,0.2,0,0.3-0.1c0,0,0.3,0,0.5-0.1
	c0.2,0,1.7-0.5,1.7-0.5s0.2,0,0.3-0.2c0-0.2,0.1-0.8,0.1-0.8L8.6,6.3z"/>
</svg>
