<?xml version="1.0" encoding="UTF-8"?><svg id="_層_2" xmlns="http://www.w3.org/2000/svg" viewBox="0 0 693.04 461.11"><defs><style>.cls-1{fill:#fff;}.cls-2{fill:#fff000;}.cls-3{fill:none;stroke:#fff;stroke-miterlimit:10;stroke-width:5.42px;}</style></defs><g id="_層_1-2"><g><g><path class="cls-1" d="M60.21,140.28v-45.14H31.89v7.67H10.36V25.37H60.21V.15h22.72V25.37h51.04V102.08h-22.57v-6.93h-28.47v45.14h-22.72ZM31.89,74.05h28.32v-27.58H31.89v27.58Zm51.04,0h28.47v-27.58h-28.47v27.58Z"/><path class="cls-1" d="M204.33,140.28v-45.58c-4.43,9.93-8.75,17.7-12.98,23.31-1.87-5.9-5.11-12.78-9.74-20.65,7.28-8.56,13.91-20.5,19.91-35.84h-18.14v-19.91h20.95v-13.72c-6.49,.98-11.31,1.62-14.46,1.92-.79-4.82-2.66-10.33-5.61-16.52,18.49-2.75,34.47-6.83,47.94-12.24l11.65,17.55c-5.7,1.97-11.95,3.74-18.73,5.31v17.7h18.14v19.91h-18.14v.44c3.15,2.66,9.29,9.05,18.44,19.18l-12.24,16.82c-1.67-3.74-3.74-7.82-6.2-12.24v54.58h-20.8Zm82.01-.15v-32.75l-42.63,7.82-3.39-20.5,46.02-8.26V0h21.09V82.75l13.28-2.36,3.25,20.21-16.52,2.95v36.58h-21.09Zm-20.8-57.53c-4.23-6.59-11.6-14.36-22.13-23.31l13.72-12.24c11.21,8.65,18.93,15.93,23.16,21.83l-14.75,13.72Zm4.13-39.24c-3.93-6.69-10.97-14.4-21.09-23.16l14.01-11.95c10.72,8.65,18.09,15.93,22.13,21.83l-15.05,13.28Z"/><path class="cls-1" d="M378.38,140.87c-1.48-2.75-3.39-5.75-5.75-9-2.56-3.34-4.87-6-6.93-7.97,9.05-4.72,16.62-12.19,22.72-22.42l-4.13-3.25-.88,3.54-17.41-9.15c2.85-10.62,6.15-25.27,9.88-43.96h-10.18V28.91h13.87c1.28-6.98,2.8-16.57,4.57-28.76l20.06,2.07c-1.67,9.44-3.3,18.34-4.87,26.7h9.59l3.69-.44,12.69,2.06c-1.48,27.34-5.31,49.22-11.51,65.64,7.18,6,12.34,11.11,15.49,15.34l-12.83,17.26c-2.46-3.44-6.49-7.97-12.1-13.57-6.69,10.52-15.34,19.08-25.96,25.67Zm18.29-57.68c3.34-9.64,5.8-21.14,7.38-34.52h-8.7c-1.18,6.39-3.15,15.69-5.9,27.88-.1,.59-.2,1.03-.3,1.33,2.56,1.57,5.06,3.34,7.52,5.31Zm43.37,57.09c-1.08-6.39-3.59-13.37-7.52-20.95,8.16,.39,13.62,.49,16.37,.29,2.06,0,3.1-.83,3.1-2.51v-38.5h-29.21v-20.21h29.21v-15.78h6.34c3.44-4.03,7.08-9.19,10.92-15.49h-41.45V7.52h54.73l4.43-1.18,13.87,10.62c-9.74,14.75-18.83,26.5-27.29,35.25v6.2h30.98v20.21h-30.98v38.79c0,5.21-.59,9.19-1.77,11.95-1.28,3.05-3.44,5.41-6.49,7.08-5.41,2.75-13.82,4.03-25.22,3.84Z"/><path class="cls-1" d="M551.56,118.74l-7.23-21.39c4.92-1.67,10.52-3.69,16.82-6.05V54.87h-13.28v-20.06h13.28V2.51h19.91V34.81h12.1v20.06h-12.1v28.62l11.8-4.87,4.72,19.03c-8.36,4.03-21.04,9.88-38.06,17.55-3.64,1.57-6.29,2.75-7.97,3.54Zm42.04,22.27c-.98-2.66-2.63-5.83-4.94-9.51-2.31-3.69-4.5-6.56-6.56-8.63,10.52-1.97,18.14-4.67,22.86-8.11,3.93-2.85,6.59-6.83,7.97-11.95h-11.51V54.43h77.44v48.38h-16.82v14.46c0,1.97,.12,3.2,.37,3.69,.25,.49,.86,.74,1.84,.74h3.84c.98,0,1.67-.69,2.06-2.06,.39-1.38,.69-4.52,.89-9.44,1.77,1.38,4.47,2.8,8.11,4.28,3.44,1.48,6.59,2.51,9.44,3.1-.88,8.56-2.75,14.46-5.6,17.7-2.56,2.95-6.74,4.43-12.54,4.43h-9.88c-7.67,0-12.78-1.67-15.34-5.02-2.36-2.95-3.54-8.65-3.54-17.11v-14.75h-7.67c-1.67,9.64-5.16,17.21-10.47,22.72-6.29,6.69-16.28,11.85-29.94,15.49Zm.88-91.16v-17.26h16.82c-.88-3.05-1.77-5.51-2.65-7.38l2.95-.59h-14.75V8.26h30.68V.74h21.09v7.52h33.93V24.63h-12.54c-.49,.98-1.18,2.31-2.06,3.98-.98,1.87-1.67,3.2-2.07,3.98h19.03v17.26h-90.42Zm26.99,22.72h36.43v-5.31h-36.43v5.31Zm0,17.41h36.43v-5.46h-36.43v5.46Zm10.18-57.38h13.72c.1-.29,.25-.74,.44-1.33,1.18-2.95,1.97-5.16,2.36-6.64h-19.32c1.28,2.75,2.21,5.41,2.8,7.97Z"/></g><g><g><path class="cls-2" d="M254.39,423.98c-10.19,0-18.67-2.69-25.45-8.07-6.78-5.38-10.16-12.21-10.16-20.47,0-12.01,6.1-21.29,18.31-27.83v-.72c-9.42-6.73-14.13-15.19-14.13-25.38,0-8.46,3.03-15.28,9.08-20.47,5.96-5.09,13.65-7.64,23.07-7.64s16.94,2.6,22.56,7.79c5.62,5.19,8.43,12.06,8.43,20.62,0,4.9-1.39,9.66-4.18,14.27-2.4,3.94-5.58,7.31-9.52,10.09v.72c11.92,6.44,17.88,15.96,17.88,28.55,0,8.17-3.27,14.95-9.8,20.33-6.73,5.48-15.43,8.22-26.1,8.22Zm.58-15c4.61,0,8.31-1.25,11.1-3.75,2.98-2.5,4.47-6.01,4.47-10.52,0-5.09-2.21-9.32-6.63-12.69-3.08-2.4-8.75-5.29-17.01-8.65-2.98,2.4-5.33,5.29-7.06,8.65-1.83,3.56-2.74,7.26-2.74,11.1,0,4.71,1.73,8.56,5.19,11.54,3.36,2.88,7.59,4.33,12.69,4.33Zm6.2-48.01c5.09-5.38,7.64-11.34,7.64-17.88,0-4.42-1.25-8-3.75-10.74-2.5-2.74-5.96-4.11-10.38-4.11-3.75,0-6.83,1.15-9.23,3.46-2.5,2.4-3.75,5.67-3.75,9.8,0,4.61,1.82,8.56,5.48,11.82,2.88,2.5,7.54,5.05,13.99,7.64Z"/><path class="cls-2" d="M335.7,423.98c-10.19,0-18.67-2.69-25.45-8.07-6.78-5.38-10.17-12.21-10.17-20.47,0-12.01,6.1-21.29,18.31-27.83v-.72c-9.42-6.73-14.13-15.19-14.13-25.38,0-8.46,3.03-15.28,9.08-20.47,5.96-5.09,13.65-7.64,23.07-7.64s16.94,2.6,22.56,7.79c5.62,5.19,8.43,12.06,8.43,20.62,0,4.9-1.39,9.66-4.18,14.27-2.4,3.94-5.58,7.31-9.52,10.09v.72c11.92,6.44,17.88,15.96,17.88,28.55,0,8.17-3.27,14.95-9.8,20.33-6.73,5.48-15.43,8.22-26.1,8.22Zm.58-15c4.61,0,8.31-1.25,11.1-3.75,2.98-2.5,4.47-6.01,4.47-10.52,0-5.09-2.21-9.32-6.63-12.69-3.08-2.4-8.75-5.29-17.01-8.65-2.98,2.4-5.33,5.29-7.06,8.65-1.83,3.56-2.74,7.26-2.74,11.1,0,4.71,1.73,8.56,5.19,11.54,3.36,2.88,7.59,4.33,12.69,4.33Zm6.2-48.01c5.09-5.38,7.64-11.34,7.64-17.88,0-4.42-1.25-8-3.75-10.74-2.5-2.74-5.96-4.11-10.38-4.11-3.75,0-6.83,1.15-9.23,3.46-2.5,2.4-3.75,5.67-3.75,9.8,0,4.61,1.82,8.56,5.48,11.82,2.88,2.5,7.54,5.05,13.99,7.64Z"/><path class="cls-2" d="M417.02,423.98c-10.19,0-18.67-2.69-25.45-8.07-6.78-5.38-10.17-12.21-10.17-20.47,0-12.01,6.1-21.29,18.31-27.83v-.72c-9.42-6.73-14.13-15.19-14.13-25.38,0-8.46,3.03-15.28,9.08-20.47,5.96-5.09,13.65-7.64,23.07-7.64s16.94,2.6,22.56,7.79c5.62,5.19,8.43,12.06,8.43,20.62,0,4.9-1.39,9.66-4.18,14.27-2.4,3.94-5.58,7.31-9.52,10.09v.72c11.92,6.44,17.88,15.96,17.88,28.55,0,8.17-3.27,14.95-9.8,20.33-6.73,5.48-15.43,8.22-26.1,8.22Zm.58-15c4.61,0,8.31-1.25,11.1-3.75,2.98-2.5,4.47-6.01,4.47-10.52,0-5.09-2.21-9.32-6.63-12.69-3.08-2.4-8.75-5.29-17.01-8.65-2.98,2.4-5.33,5.29-7.06,8.65-1.83,3.56-2.74,7.26-2.74,11.1,0,4.71,1.73,8.56,5.19,11.54,3.36,2.88,7.59,4.33,12.69,4.33Zm6.2-48.01c5.09-5.38,7.64-11.34,7.64-17.88,0-4.42-1.25-8-3.75-10.74-2.5-2.74-5.96-4.11-10.38-4.11-3.75,0-6.83,1.15-9.23,3.46-2.5,2.4-3.75,5.67-3.75,9.8,0,4.61,1.82,8.56,5.48,11.82,2.88,2.5,7.54,5.05,13.99,7.64Z"/></g><rect class="cls-3" x="189.29" y="284.45" width="501.04" height="173.95" rx="12.88" ry="12.88"/><path class="cls-2" d="M608.14,417.98c-1.73-1.17-4.05-2.37-6.96-3.58,1.59-3.23,2.72-7.75,3.37-13.56,.51-4.4,.82-10.14,.91-17.21l7.66,.56c-.05,2.16-.16,5.18-.35,9.06,1.12,3.37,2.58,6.07,4.36,8.08v-21.85h-14.05v-7.24h12.37v-6.6h-10.47v-7.17h10.47v-6.88h7.8v6.88h10.4v7.17h-10.4v6.6h12.15v7.24h-10.61v7.59h9.98v7.24h-9.98v11.59c3.14,.89,7.66,1.33,13.56,1.33,13.11,.19,23.21,.12,30.28-.21-.61,.94-1.24,2.23-1.9,3.86-.61,1.64-1.03,3.09-1.26,4.36h-27.12c-7.03,0-12.46-.61-16.3-1.83-4.5-1.41-8.03-3.98-10.61-7.73-.75,4.92-1.85,9.02-3.3,12.29Zm39.34-15.03c-3.89,0-6.53-.75-7.94-2.25-1.4-1.5-2.11-4.43-2.11-8.78v-36.88h26.84v26.28h-18.76v10.61c0,1.54,.19,2.53,.56,2.95,.37,.42,1.26,.63,2.67,.63h8.5c1.17,0,1.96-.5,2.35-1.51,.4-1.01,.67-3.1,.81-6.29,2.01,1.5,4.45,2.55,7.31,3.16-.47,4.64-1.38,7.81-2.74,9.52-1.36,1.71-3.7,2.56-7.03,2.56h-10.47Zm-1.97-29.09h10.61v-11.45h-10.61v11.45Z"/><path class="cls-2" d="M502.84,332.86v-5.04h-23.75v-11.88h23.75v-6h14.04v6h28.31v-6h14.04v6h24.11v11.88h-24.11v5.04h-14.04v-5.04h-28.31v5.04h-14.04Zm-19.08,89.14v-44.39h40.55v-4.8h-33.11v-38.27h80.86v38.27h-34.19v4.8h42.59v31.43c0,3.04-.28,5.32-.84,6.84-.72,1.68-1.96,3-3.72,3.96-1.6,.88-3.72,1.44-6.36,1.68-1.68,.16-4.52,.24-8.52,.24-.48-2.72-1.4-5.72-2.76-9l-6.24,1.56c-.24-1.84-.72-3.84-1.44-6-7.12,.48-17.56,1.16-31.31,2.04-7.44,.4-12.76,.72-15.96,.96l-1.08-12c2.64-.08,7.2-.28,13.68-.6,3.68-.16,6.48-.28,8.4-.36v-9h-26.99v32.63h-13.56Zm21.11-72.7h19.44v-5.4h-19.44v5.4Zm0,14.28h19.44v-5.52h-19.44v5.52Zm32.99-14.28h19.79v-5.4h-19.79v5.4Zm0,14.28h19.79v-5.52h-19.79v5.52Zm0,34.19l8.76-.48c-.88-2-1.8-3.84-2.76-5.52l9.6-2.4h-15.6v8.4Zm25.07,12.72h2.04c1.12-.08,1.68-.6,1.68-1.56v-19.55h-12.12c4.32,7.36,7.12,14.4,8.4,21.11Z"/></g><g><path class="cls-1" d="M0,237.6v-8.9H16.07c1.36-5.38,2.84-12.17,4.45-20.37H6.87v-8.83h15.32c.75-3.97,1.51-8.35,2.26-13.13H4.38v-8.83H62.4v8.83h-27.92c-.4,2.31-1.06,5.86-1.96,10.64-.2,1.11-.35,1.94-.45,2.49h23.47v29.2h11.77v8.9H0Zm26.11-8.9h20.07v-20.37h-15.77c-1.41,7.09-2.84,13.88-4.3,20.37Z"/><path class="cls-1" d="M75.83,239.26v-7.77h28.75v-5.13h-19.47v-7.02h19.47v-4.6h-16c-2.26,2.97-4.58,5.48-6.94,7.54-2.72-2.46-5.23-4.3-7.54-5.51,2.57-1.91,4.95-4.23,7.17-6.94,2.21-2.72,4-5.53,5.36-8.45h-3.55v-28.07h51.61v28.07h-45.12l6.26,1.81c-.91,1.81-1.64,3.19-2.19,4.15h10.94v-4.6h9.28v4.6h23.69v7.39h-23.69v4.6h20.22v7.02h-20.22v5.13h28.45v7.77H75.83Zm16.15-55.16h33.35v-4h-33.35v4Zm0,10.41h33.35v-4.07h-33.35v4.07Z"/><path class="cls-1" d="M161.69,205.53c-2.72-2.57-6.94-5.1-12.68-7.62l4.83-6.71c2.31,.86,4.68,1.89,7.09,3.09,2.61,1.36,4.6,2.62,5.96,3.77l-5.21,7.47Zm-3.77,34.71l-8.22-5.06c4.17-7.59,7.92-15.77,11.24-24.52l7.32,5.13c-3.02,8.1-6.46,16.25-10.34,24.45Zm7.85-54.63c-1.31-1.26-3.19-2.64-5.66-4.15-2.46-1.51-4.83-2.74-7.09-3.7l5.06-6.79c2.26,.91,4.6,2.04,7.02,3.4,2.57,1.41,4.53,2.69,5.89,3.85l-5.21,7.39Zm5.73,55.08c-.75-.65-1.94-1.43-3.55-2.34-1.51-.8-2.84-1.43-4-1.89,3.17-4.98,5.36-11.42,6.56-19.32,.8-5.33,1.21-11.85,1.21-19.54v-20.45h19.92v-6.49h9.13v6.49h18.11v7.47h-38.71v6.11h6.04v-4.83h7.92v4.83h9.73v-4.83h8.3v4.83h7.02v7.02h-7.02v11.02h-25.96v-11.02h-6.04c0,19.47-2.89,33.78-8.68,42.93Zm43.69,.38c-6.49-1.26-12.15-3.37-16.98-6.34-4.83,2.61-10.59,4.68-17.28,6.19-.35-1.11-.96-2.38-1.81-3.81-.86-1.43-1.66-2.58-2.41-3.43,5.23-.91,10.04-2.34,14.41-4.3-2.72-2.67-5.06-5.68-7.02-9.05l5.66-1.66h-8.6v-7.02h29.12l1.43-.3,5.51,2.42c-2.37,6.24-6.11,11.52-11.24,15.84,4.27,1.86,9.13,3.19,14.56,4-2.06,2.01-3.85,4.5-5.36,7.47Zm-16.75-15.77c2.82-2.01,5.13-4.23,6.94-6.64h-13.2c1.51,2.41,3.6,4.63,6.26,6.64Zm-4.3-23.31h9.73v-4.23h-9.73v4.23Z"/><path class="cls-1" d="M231.64,241.07v-36.22c-1.16,1.66-2.31,3.19-3.47,4.6-.25-1.16-.84-2.75-1.77-4.79-.93-2.04-1.77-3.61-2.53-4.71,5.58-6.84,9.73-16.57,12.45-29.2l8.45,2.04c-1.61,6.19-3.14,11.17-4.6,14.94v53.34h-8.53Zm13.96-.08v-67.45h21.5v25.96h-13.28v5.73h12v7.32h-12v6.49h12.98v7.39h-12.98v14.56h-8.22Zm8.22-48.82h5.58v-11.24h-5.58v11.24Zm11.39,49.19c-1.11-2.52-2.59-4.7-4.45-6.56,5.28-1.76,9.78-4.58,13.51-8.45-2.62-4.53-4.7-9.51-6.26-14.94l4.45-1.06h-4.9v-7.24h18.64l1.36-.23,5.06,1.43c-1.56,9.1-4.38,16.57-8.45,22.41,3.17,3.42,7.07,6.01,11.7,7.77-2.21,2.11-3.95,4.35-5.21,6.71-4.43-2.01-8.3-4.85-11.62-8.53-3.67,3.52-8.27,6.41-13.81,8.68Zm4.23-42.1v-7.54h13.73v-10.64h-13.73v-7.54h21.96v25.73h-21.96Zm9.73,20.83c1.81-3.22,3.19-6.46,4.15-9.73h-8.45c1.06,3.47,2.49,6.71,4.3,9.73Z"/><path class="cls-1" d="M341.57,240.62c-5.48,0-9.19-.88-11.13-2.64-1.94-1.76-2.91-5.06-2.91-9.88v-9.36l-24.97,2.64-1.06-8.68,26.03-2.57v-7.62c-5.23,.8-10.51,1.48-15.84,2.04-.35-2.46-1.23-5.08-2.64-7.85,18.06-2.11,31.46-5.05,40.22-8.83l7.02,7.39c-5.28,2.11-11.57,3.92-18.86,5.43v8.45l30.41-3.02,1.06,8.3-31.46,3.32v10.19c0,1.71,.3,2.78,.91,3.21,.6,.43,2.01,.64,4.23,.64h12.83c2.01,0,3.33-.62,3.96-1.85,.63-1.23,1.09-4.09,1.4-8.56,.96,.75,2.36,1.48,4.23,2.19,1.61,.65,3.17,1.16,4.68,1.51-.6,6.09-1.82,10.2-3.66,12.34-1.84,2.14-5.12,3.21-9.85,3.21h-14.56Zm-38.48-45.57v-17.73h27.24v-6.56h9.51v6.56h27.77v17.73h-9.58v-9.28h-45.8v9.28h-9.13Z"/><path class="cls-1" d="M399.97,228.62l-8.38-4.83c3.92-5.73,6.46-14.49,7.62-26.26l8.83,1.81c-1.51,13.78-4.2,23.54-8.07,29.28Zm24.97,11.77c-4.78,0-8.01-.88-9.7-2.64-1.69-1.76-2.53-5-2.53-9.73v-35.84h9.36v35.84c0,1.81,.24,2.96,.72,3.43,.48,.48,1.6,.72,3.36,.72h10.34c1.26,0,2.19-.35,2.79-1.06,.6-.75,1.06-2.14,1.36-4.15,.25-1.81,.48-4.8,.68-8.98,2.11,1.66,4.9,2.97,8.37,3.92-.5,7.14-1.56,11.97-3.17,14.49-1.76,2.67-4.85,4-9.28,4h-12.3Zm13.2-48.44c-2.87-2.42-6.67-4.93-11.39-7.54-4.73-2.62-9.31-4.78-13.73-6.49l5.73-7.02c4.33,1.56,8.9,3.6,13.73,6.11,4.63,2.41,8.48,4.75,11.54,7.02l-5.89,7.92Zm17.05,34.25c-.75-3.87-2.31-8.4-4.68-13.58-2.41-5.18-5.11-9.83-8.07-13.96l8.22-4.15c3.17,4.07,6.01,8.65,8.53,13.73,2.46,4.93,4.17,9.41,5.13,13.43l-9.13,4.53Z"/><path class="cls-1" d="M504.32,241.67c-1.31-2.11-3.07-4.1-5.28-5.96-14.49,1.51-24.45,2.49-29.88,2.94l-1.06-7.54c6.34-.45,11.44-.8,15.32-1.06v-4.53h-13.28v-6.34h13.28v-2.94h-12.98v-23.31h12.98v-2.94h-14.86v-6.49h14.86v-3.02c-4.88,.35-9.13,.55-12.75,.6-.4-2.26-1.06-4.38-1.96-6.34,13.78-.75,24.62-1.99,32.52-3.7l3.92,6.71c-3.82,.81-8.35,1.48-13.58,2.04v3.7h14.49v4.15h7.09c.05-3.32,.08-8.58,.08-15.77h8.6c0,7.19-.05,12.45-.15,15.77h15.32c0,1.31-.03,2.64-.08,4-.35,16.15-.75,27.11-1.21,32.9-.5,6.59-1.33,10.71-2.49,12.37-.81,1.16-1.71,2.04-2.72,2.64-.81,.45-1.89,.83-3.24,1.13-1.51,.3-4.63,.4-9.36,.3-.2-3.12-1.08-5.99-2.64-8.6,2.77,.25,5.31,.38,7.62,.38,1.11,0,1.96-.43,2.57-1.28,.8-1.01,1.41-4.15,1.81-9.43,.45-5.33,.78-14.06,.98-26.18h-6.79c-.55,11.12-1.94,20.02-4.15,26.71-2.72,8-7.04,14.36-12.98,19.09Zm-26.79-39.76h5.89v-3.32h-5.89v3.32Zm0,8.75h5.89v-3.4h-5.89v3.4Zm14.03,18.71c3.12-.2,7.49-.55,13.13-1.06,2.77-3.82,4.8-8.55,6.11-14.18,1.11-4.83,1.81-10.91,2.11-18.26h-6.87v-5.88h-14.49v2.94h13.35v23.31h-13.35v2.94h13.66v6.34h-13.66v3.85Zm0-27.46h5.89v-3.32h-5.89v3.32Zm0,8.75h5.89v-3.4h-5.89v3.4Z"/><path class="cls-1" d="M551.55,240.99c-2.06-2.31-4.8-4.75-8.22-7.32,14.89-7.49,24.5-21.6,28.82-42.33l4.6,.83c-.45-2.36-.8-5.08-1.06-8.15h-17.2v-9.13h26.11c0,10.82,1.51,20.25,4.53,28.3,4.73,12.78,13.15,22.74,25.28,29.88-1.01,.8-2.26,2.01-3.77,3.62-1.56,1.66-2.72,3.07-3.47,4.23-13.38-8.1-22.63-20.5-27.77-37.2-5.73,17.2-15.02,29.63-27.84,37.27Z"/><path class="cls-1" d="M620.66,238.81v-8.83h28.67v-14.56h-21.5v-8.68h21.5v-13.05h-25.5v-8.75h30.18c-2.57-2.51-6.34-5.58-11.32-9.21l7.39-5.13c6.54,4.22,11.37,8.02,14.49,11.39l-4,2.94h23.92v8.75h-25.28v13.05h21.66v8.68h-21.66v14.56h28.97v8.83h-67.53Z"/></g><g><path class="cls-1" d="M5.81,352.61c-1.61-1.21-3.5-2.26-5.66-3.17,1.91-3.42,3.22-8.12,3.92-14.11,.55-4.38,.88-10.46,.98-18.26l6.26,.45c-.05,2.52-.18,6.01-.38,10.49,1.41,4.38,3.24,7.65,5.51,9.81v-25.43H2.19v-6.26H15.32v-8.22H3.7v-6.11H15.32v-8.45h6.41v8.45h11.32v6.11h-11.32v8.22h12.75v2.64c5.63-3.42,9.05-8.9,10.26-16.45h-9.43v-5.96h32.9c0,.86-.03,1.71-.08,2.57-.3,6.59-.68,11.39-1.13,14.41-.45,3.02-1.08,5.01-1.89,5.96-1.11,1.26-2.67,1.99-4.68,2.19-2.26,.2-4.98,.23-8.15,.08-.2-2.26-.81-4.25-1.81-5.96,1.91,.2,4.12,.3,6.64,.3,1.06,0,1.81-.25,2.26-.75,.85-1.01,1.48-5.28,1.89-12.83h-9.88c-.81,5.13-2.31,9.48-4.53,13.05-2.16,3.47-5.13,6.36-8.9,8.68-.81-.8-1.96-1.79-3.47-2.94v1.28h-11.77v9.58h10.94v6.11h-10.94v13.73c3.72,1.41,9.31,2.11,16.75,2.11,2.77,.05,7.95,.05,15.54,0,8.35,0,13.78-.05,16.3-.15-1.36,1.96-2.31,4.27-2.87,6.94h-28.9c-8.05,0-14.18-.75-18.41-2.26-4.88-1.76-8.68-4.88-11.39-9.36-.75,5.38-2.06,9.88-3.92,13.51Zm31.76-14.11v-23.31h28.97v23.31h-28.97Zm6.56-5.73h15.47v-11.85h-15.47v11.85Z"/><path class="cls-1" d="M92.88,352.46v-40.52c-2.11,2.87-4.28,5.48-6.49,7.85-1.01-2.41-2.29-4.78-3.85-7.09,3.52-3.47,6.89-7.82,10.11-13.05,3.12-5.13,5.71-10.46,7.77-16l6.56,1.96c-2.01,5.33-4.5,10.64-7.47,15.92v50.93h-6.64Zm13.96,.08v-46.4h6.49v36.67h39.99v6.11h-39.99v3.62h-6.49Zm12.3-14.71v-35.69h7.85c.25-2.01,.45-3.82,.6-5.43h-19.39v-6.04h19.92c.1-1.41,.25-3.44,.45-6.11,.05-.55,.08-.96,.08-1.21l6.94,.38c-.1,1.61-.3,3.92-.6,6.94h17.88v6.04h-18.49c-.15,.91-.33,2.24-.53,4-.1,.65-.18,1.13-.23,1.43h15.47v35.69h-29.95Zm6.49-25.43h16.75v-5.13h-16.75v5.13Zm0,10.11h16.75v-5.13h-16.75v5.13Zm0,10.19h16.75v-5.28h-16.75v5.28Z"/><path class="cls-1" d="M3.32,443.55v-7.09H68.21v7.09H3.32Zm4.3-49.87v-7.17h56.59v7.17H7.62Zm4.9,24.22v-7.17H58.32v7.17H12.52Z"/><path class="cls-1" d="M125.93,448.46c-.2-2.16-.83-4.12-1.89-5.88,2.41,.25,5.26,.38,8.53,.38,1.26,0,2.14-.2,2.64-.6,1.01-1.01,1.81-4.12,2.41-9.36h-19.69c-1.56,3.67-3.8,6.74-6.72,9.2-3.27,2.67-7.57,4.83-12.9,6.49-.35-.81-.92-1.76-1.7-2.87-.78-1.11-1.5-1.96-2.15-2.57,6.59-1.81,11.37-4.53,14.34-8.15,2.36-2.92,3.95-7.12,4.75-12.6h-14.64c-1.31,11.07-4.48,19.62-9.51,25.65-.55-.8-1.33-1.71-2.34-2.72-1.16-1.06-2.16-1.79-3.02-2.19,3.52-4.33,5.94-9.83,7.24-16.52,.85-4.53,1.28-10.26,1.28-17.2v-26.56l6.56,1.58c18.31-.8,32.19-2.11,41.65-3.92l4.75,5.28c-10.82,2.11-26.13,3.55-45.95,4.3v3.7h47.91v17.13h-22.26v5.89h27.24v5.58h-31.92c-.25,1.86-.55,3.55-.91,5.06h25.35c-.05,.86-.1,1.71-.15,2.56-.5,5.03-1.04,8.77-1.62,11.21-.58,2.44-1.35,4.16-2.3,5.17-1.31,1.16-3.12,1.81-5.43,1.96-1.61,.2-4.8,.2-9.58,0Zm-26.56-31.54h18.94v-5.89h-18.71c0,1.86-.08,3.82-.23,5.89Zm.23-11.39h41.05v-6.11h-41.05v6.11Z"/></g></g></g></svg>