<svg id="圖層_1" data-name="圖層 1" xmlns="http://www.w3.org/2000/svg" viewBox="0 0 310.9 18.2"><defs><style>.cls-1{fill:#006cb6;}</style></defs><path class="cls-1" d="M-410.5,151.6h2.6v15.6h8.3v2.3h-10.9Z" transform="translate(410.5 -151.5)"/><path class="cls-1" d="M-389.1,151.6h2.6v17.9h-2.6Z" transform="translate(410.5 -151.5)"/><path class="cls-1" d="M-362.6,151.6h2.6l-7.8,18h-.6l-7.9-18h2.6l5.6,12.6Z" transform="translate(410.5 -151.5)"/><path class="cls-1" d="M-349.9,151.6h10.5v2.3h-7.8v5.4h7.5v2.3h-7.5v5.6h8v2.3h-10.7Z" transform="translate(410.5 -151.5)"/><path class="cls-1" d="M-309.5,151.5h1.9l8.3,18H-302l-2.5-5.3h-7.9l-2.3,5.3h-2.7Zm3.9,10.4-3-6.5-2.7,6.5Z" transform="translate(410.5 -151.5)"/><path class="cls-1" d="M-273.6,151.6h9.8v2.3H-271v5h7.2v2.3H-271v8.3h-2.6Z" transform="translate(410.5 -151.5)"/><path class="cls-1" d="M-240,151.6h2.6v10.2a12.4,12.4,0,0,1-.3,3.1,6.7,6.7,0,0,1-.7,1.7,4.9,4.9,0,0,1-1.2,1.3,8.5,8.5,0,0,1-5.7,1.8,8.9,8.9,0,0,1-5.8-1.8,6.9,6.9,0,0,1-1.1-1.3,6.7,6.7,0,0,1-.7-1.7,12.2,12.2,0,0,1-.3-3.2V151.6h2.6v10.2a7.6,7.6,0,0,0,.6,3.5,4.5,4.5,0,0,0,1.8,1.5,6.5,6.5,0,0,0,2.9.6,5.8,5.8,0,0,0,3.8-1.2,3.3,3.3,0,0,0,1.1-1.5,6.6,6.6,0,0,0,.4-2.9Z" transform="translate(410.5 -151.5)"/><path class="cls-1" d="M-225.6,151.6h2.6v15.6h8.3v2.3h-10.9Z" transform="translate(410.5 -151.5)"/><path class="cls-1" d="M-204.3,151.6h2.7v15.6h8.3v2.3h-11Z" transform="translate(410.5 -151.5)"/><path class="cls-1" d="M-167.3,151.6h2.6v15.6h8.3v2.3h-10.9Z" transform="translate(410.5 -151.5)"/><path class="cls-1" d="M-145.9,151.6h2.6v17.9h-2.6Z" transform="translate(410.5 -151.5)"/><path class="cls-1" d="M-131.1,151.6h9.9v2.3h-7.2v5h7.2v2.3h-7.2v8.3h-2.7Z" transform="translate(410.5 -151.5)"/><path class="cls-1" d="M-110.3,151.6h10.4v2.3h-7.8v5.4h7.6v2.3h-7.6v5.6h8.1v2.3h-10.7Z" transform="translate(410.5 -151.5)"/></svg>