<?xml version="1.0" encoding="UTF-8"?><svg xmlns="http://www.w3.org/2000/svg" viewBox="0 0 268.23 26.93"><defs><style>.d{fill:#00a2b9;}.e{fill:none;stroke:#00a2b9;stroke-miterlimit:10;}</style></defs><g id="a"/><g id="b"><g id="c"><g><g><path class="d" d="M17.27,0V1.71H4.43V11.11H13.71v1.71H4.43v13.49H0V0H17.27Z"/><path class="d" d="M19.77,0h4.43V17.09c0,1.12,.19,2.18,.58,3.17,.38,.99,.93,1.85,1.65,2.59,.71,.74,1.58,1.33,2.59,1.76,1.01,.43,2.14,.64,3.38,.64s2.39-.21,3.39-.64c1.01-.43,1.86-1.02,2.57-1.76,.71-.74,1.25-1.6,1.63-2.59,.38-.99,.57-2.04,.57-3.17V0h1.94V17.09c0,1.35-.22,2.62-.65,3.81-.44,1.19-1.12,2.23-2.05,3.13-.93,.89-2.13,1.6-3.58,2.12-1.46,.52-3.2,.78-5.24,.78-1.81,0-3.42-.26-4.81-.78-1.4-.52-2.57-1.23-3.51-2.13-.95-.9-1.66-1.95-2.14-3.17-.48-1.21-.72-2.5-.72-3.88V0Z"/><path class="d" d="M69,0V1.71h-9.53V26.31h-4.43V1.71h-9.53V0h23.48Z"/><path class="d" d="M72.04,0h4.43V17.09c0,1.12,.19,2.18,.58,3.17,.38,.99,.93,1.85,1.65,2.59,.71,.74,1.58,1.33,2.59,1.76,1.01,.43,2.14,.64,3.38,.64s2.39-.21,3.39-.64c1.01-.43,1.86-1.02,2.57-1.76,.71-.74,1.25-1.6,1.63-2.59,.38-.99,.57-2.04,.57-3.17V0h1.94V17.09c0,1.35-.22,2.62-.65,3.81-.44,1.19-1.12,2.23-2.05,3.13-.93,.89-2.13,1.6-3.58,2.12-1.46,.52-3.2,.78-5.24,.78-1.81,0-3.42-.26-4.81-.78-1.4-.52-2.57-1.23-3.51-2.13-.95-.9-1.66-1.95-2.14-3.17-.48-1.21-.72-2.5-.72-3.88V0Z"/><path class="d" d="M100.6,0h9.13c1.57,0,2.96,.17,4.15,.51,1.19,.34,2.18,.81,2.98,1.42,.79,.61,1.39,1.33,1.8,2.17,.4,.84,.61,1.76,.61,2.75,0,.82-.16,1.59-.47,2.3-.31,.71-.75,1.36-1.31,1.93-.56,.58-1.24,1.07-2.03,1.49-.79,.42-1.67,.74-2.62,.98l9.59,12.76h-5.14l-9.15-12.36h-3.1v12.36h-4.43V0Zm4.43,12.62h2.56c.99,0,1.91-.13,2.75-.4,.84-.26,1.57-.64,2.18-1.12,.62-.48,1.09-1.07,1.44-1.76,.34-.69,.52-1.46,.52-2.32,0-.79-.14-1.52-.41-2.18-.27-.66-.65-1.23-1.15-1.7-.5-.47-1.08-.84-1.77-1.1-.68-.26-1.43-.4-2.23-.4h-3.89V12.62Z"/><path class="d" d="M143.4,0V1.71h-13.87V11.11h9.29v1.71h-9.29v11.79h13.87v1.71h-18.3V0h18.3Z"/></g><line class="e" x1="157.48" y1="18.8" x2="268.23" y2="18.8"/></g></g></g></svg>