<?xml version="1.0" encoding="utf-8"?>
<!-- Generator: Adobe Illustrator 26.0.3, SVG Export Plug-In . SVG Version: 6.00 Build 0)  -->
<svg version="1.1" id="圖層_1" xmlns="http://www.w3.org/2000/svg" xmlns:xlink="http://www.w3.org/1999/xlink" x="0px" y="0px"
	 viewBox="0 0 229.7 18.2" style="enable-background:new 0 0 229.7 18.2;" xml:space="preserve">
<style type="text/css">
	.st0{fill:#FFFFFF;}
</style>
<g>
	<path class="st0" d="M0,0.1h2.6v15.6h8.3V18H0V0.1z"/>
	<path class="st0" d="M16,0.1h2.6V18H16V0.1z"/>
	<path class="st0" d="M37.1,0.1h2.6l-7.8,18h-0.6l-7.9-18H26l5.5,12.6L37.1,0.1z"/>
	<path class="st0" d="M44.4,0.1h10.4v2.3H47v5.5h7.5v2.3H47v5.6h8.1V18H44.4V0.1z"/>
	<path class="st0" d="M74,0h1.9l8.3,18h-2.7l-2.5-5.3h-7.9L68.8,18h-2.7L74,0z M77.8,10.4l-3-6.5l-2.8,6.5H77.8z"/>
	<path class="st0" d="M99,0.1h9.8v2.3h-7.2v5h7.2v2.3h-7.2V18H99V0.1z"/>
	<path class="st0" d="M127.2,0.1h2.6v10.2c0,1.4-0.1,2.4-0.3,3.1c-0.2,0.7-0.5,1.3-0.8,1.7c-0.3,0.5-0.7,0.9-1.1,1.2
		c-1.5,1.2-3.4,1.8-5.7,1.8c-2.4,0-4.3-0.6-5.8-1.8c-0.4-0.4-0.8-0.8-1.1-1.3c-0.3-0.5-0.6-1-0.8-1.7c-0.2-0.7-0.3-1.7-0.3-3.2V0.1
		h2.7v10.2c0,1.7,0.2,2.8,0.6,3.5s1,1.2,1.8,1.6c0.8,0.4,1.8,0.6,2.9,0.6c1.6,0,2.8-0.4,3.8-1.2c0.5-0.4,0.9-0.9,1.1-1.5
		c0.2-0.6,0.3-1.6,0.3-3V0.1z"/>
	<path class="st0" d="M136.2,0.1h2.6v15.6h8.3V18h-10.9V0.1z"/>
	<path class="st0" d="M152.1,0.1h2.6v15.6h8.3V18h-10.9V0.1z"/>
	<path class="st0" d="M178.3,0.1h2.6v15.6h8.3V18h-10.9V0.1z"/>
	<path class="st0" d="M194.2,0.1h2.6V18h-2.6V0.1z"/>
	<path class="st0" d="M203.7,0.1h9.8v2.3h-7.2v5h7.2v2.3h-7.2V18h-2.6V0.1z"/>
	<path class="st0" d="M219,0.1h10.4v2.3h-7.8v5.5h7.5v2.3h-7.5v5.6h8.1V18H219V0.1z"/>
</g>
</svg>
