<?xml version="1.0" encoding="utf-8"?>
<!-- Generator: Adobe Illustrator 26.0.3, SVG Export Plug-In . SVG Version: 6.00 Build 0)  -->
<svg version="1.1" id="圖層_1" xmlns="http://www.w3.org/2000/svg" xmlns:xlink="http://www.w3.org/1999/xlink" x="0px" y="0px"
	 viewBox="0 0 520.2 48.1" style="enable-background:new 0 0 520.2 48.1;" xml:space="preserve">
<style type="text/css">
	.st0{fill:#FFFFFF;}
	.st1{fill:none;stroke:#FFFFFF;stroke-width:1.3719;stroke-miterlimit:10;}
</style>
<g>
	<g>
		<path class="st0" d="M120.3,41.3v-4.1c5.2-4.6,9-8.6,11.4-11.7c2.7-3.6,4.1-6.7,4.1-9.3c0-1.8-0.5-3.3-1.5-4.3s-2.2-1.5-3.9-1.5
			c-2.1,0-4.4,1.2-6.6,3.7l-3.9-3.9c1.7-1.8,3.4-3.2,5.1-4c1.9-0.9,3.9-1.4,6.3-1.4c3.4,0,6.1,1,8.2,3c2.1,2.1,3.1,4.7,3.1,8.1
			c0,5.5-3.9,12.1-11.9,19.9c2.4-0.3,4.3-0.4,5.8-0.4h7.8v6H120.3z"/>
		<path class="st0" d="M149.2,30V25h13.2V30H149.2z"/>
		<path class="st0" d="M178,42c-5.1,0-9.1-1.6-12-5l3.3-4.5c2.5,2.5,5.1,3.7,8,3.7c1.8,0,3.3-0.4,4.4-1.3c1.1-0.9,1.7-2.1,1.7-3.7
			c0-1.9-0.7-3.3-2.1-4.2c-1.5-1-4.2-1.5-7.9-1.5v-5.1c5.8,0,8.7-1.8,8.7-5.5c0-1.5-0.4-2.5-1.3-3.3s-2.1-1.2-3.5-1.2
			c-2.2,0-4.5,1.1-6.8,3.2l-3.6-4.4c3.3-2.9,6.9-4.4,10.7-4.4c3.5,0,6.3,0.9,8.4,2.5c2.1,1.7,3.2,4,3.2,7.1c0,3.9-2,6.6-6,8.2v0.3
			c2.1,0.6,3.9,1.6,5.1,3.1c1.4,1.5,2.1,3.5,2.1,5.7c0,3.2-1.3,5.7-3.8,7.6C184.6,41.1,181.6,42,178,42z"/>
		<path class="st0" d="M217.2,43c-0.1-1.4-0.4-2.7-1.3-4c1.5,0.2,2.9,0.3,4.4,0.3c0.6,0,1.1-0.1,1.4-0.3c0.4-0.4,0.8-1.6,1-3.6h-9.2
			c-0.9,1.8-2.1,3.3-3.6,4.5c-1.7,1.4-3.9,2.4-6.8,3.3c-0.3-0.6-0.6-1.2-1.1-2c-0.5-0.7-1-1.3-1.5-1.8c-0.7,1.4-1.5,2.7-2.5,3.7
			c-0.3-0.5-0.9-1.2-1.6-1.9c-0.8-0.7-1.5-1.2-2.1-1.5c1.9-2.3,3.2-5.2,3.9-8.8c0.5-2.4,0.7-5.5,0.7-9.2V7.2l4.1,0.9
			c9.6-0.4,16.9-1.1,21.8-2.1l3.2,3.6c-6.2,1.2-14.3,2-24.3,2.2v1.5h25.3v9.7h-11.7v2.6h14.1v3.8H215c-0.2,0.9-0.3,1.6-0.4,2.1h13
			c0,0.5-0.1,1.1-0.1,1.6c-0.3,4.6-1,7.5-2,8.4c-0.8,0.8-1.9,1.2-3.3,1.3C221.5,43,219.7,43,217.2,43z M200.8,39.3
			c3.3-0.9,5.7-2.2,7.3-3.9c1.2-1.4,2-3.3,2.4-5.9h-6.9C203.1,33.2,202.1,36.5,200.8,39.3z M203.9,25.6h8.9v-2.5H204
			c0,0.2,0,0.4,0,0.8C203.9,24.7,203.9,25.3,203.9,25.6z M204,19.6h20.6v-2.4H204V19.6z"/>
		<path class="st0" d="M259.1,28.3c2.1,3.3,4.5,7.7,5.6,10.5l-4.5,2.4c-0.3-1-0.8-2.2-1.4-3.4c-9.5,3-11.1,3.6-12.3,4.4
			c-0.3-1.4-1.1-3.7-1.9-4.9c0.9-0.4,1.9-1.3,1.9-2.8V7.4h17v19.9h-12.1v8l5.4-1.5c-0.7-1.2-1.3-2.3-1.9-3.4L259.1,28.3z
			 M251.4,11.7v3.4h7.3v-3.4H251.4z M258.7,23v-3.7h-7.3V23H258.7z M280.2,30.9c0,2.1-0.3,3.4-1.7,4.2c-1.3,0.8-3.2,0.8-5.7,0.8
			c-0.2-1.3-0.7-3.3-1.4-4.5c1.5,0.1,2.9,0.1,3.4,0c0.5,0,0.7-0.2,0.7-0.7V12h-4.9v31h-4.8V7.6h14.4V30.9z"/>
		<path class="st0" d="M287.6,43.1c-0.9-0.9-2.1-1.6-3.5-2.3c1.6-2.6,2.4-6.4,2.4-11.5h-2v-4.1h8.8v-4.6h-7.3V7.2h4.1v9.2h3.1v-11
			h4.4v9c2.2-1,4.4-2.3,6.4-4c2-1.6,3.5-3.3,4.6-5.1l4.6,1.2c-0.4,0.6-0.9,1.2-1.5,1.9h5.3l0.8-0.2l3,1.4c-3,7.8-9.5,13.2-19.3,16.1
			h11.1V21h4.5v4.7h4.5v4.2h-4.5v7.9c0,1.2-0.1,2.1-0.3,2.7c-0.3,0.7-0.8,1.2-1.5,1.5c-1.2,0.6-3.4,0.9-6.6,0.9
			c-0.2-1.5-0.6-3-1.4-4.7c1.3,0.1,2.7,0.1,4.5,0.1c0.5,0,0.8-0.3,0.8-0.7v-7.8h-13.9v-4.2h2c-0.6-1.2-1.4-2.3-2.3-3.3
			c2.2-0.5,4.5-1.3,6.7-2.3c-0.9-1.2-2.1-2.3-3.6-3.4c-0.2,0.1-0.3,0.2-0.7,0.3c-0.3,0.2-0.5,0.3-0.7,0.3c-0.9-1-1.8-1.9-2.7-2.7
			v28.1h-4.4V29.1h-2.7l0,0c0,2.3-0.2,4.5-0.6,6.6C289.6,38.9,288.7,41.2,287.6,43.1z M305.1,38.3c-0.7-1.6-2.1-3.6-4.1-5.9l3.6-2.1
			c2.2,2.3,3.7,4.2,4.4,5.7L305.1,38.3z M308.5,18.4c0.6-0.3,1.2-0.8,1.8-1.3c-1.1-1.2-2.5-2.3-4.1-3.3c-0.2,0.1-0.4,0.3-0.8,0.5
			c-0.3,0.3-0.6,0.4-0.8,0.6C306.5,16.2,307.7,17.3,308.5,18.4z M313,14.7c1-1.1,1.8-2.1,2.3-3.1H309C310.6,12.8,312,13.8,313,14.7z
			"/>
		<path class="st0" d="M328.8,25.5c-1.3-1.3-2.6-2.5-3.9-3.4c1.7-1.3,3.3-2.9,4.9-4.9c1.5-1.9,2.6-3.8,3.3-5.7l5.3,1.5
			c-1.1,2.4-2.6,4.6-4.2,6.8C332.4,22.2,330.6,24.1,328.8,25.5z M357.2,43.3c-0.3-0.7-0.9-1.8-1.6-3.2c-7.9,0.4-17.1,0.9-27.8,1.3
			l-0.6-5.1c0.2,0,0.4,0,0.8,0c2.2-0.1,3.9-0.1,5.1-0.2c1.3-2.3,2.5-5,3.8-8c1.2-3,2.2-5.7,3-8.3l5.7,1.4
			c-2.3,5.6-4.7,10.5-7.2,14.7c3.3-0.1,8.1-0.3,14.3-0.4c-1.7-2.5-3.3-4.7-4.8-6.6l4.5-2.1c1.8,2.1,3.6,4.5,5.4,7.1
			c1.7,2.6,3.1,4.9,4,6.9L357.2,43.3z M358.7,24.5c-3.6-3.2-6.9-7.5-9.6-12.9h-12.4V6.9h15.9c1.1,2.7,2.6,5.3,4.5,7.8
			c2,2.6,4,4.7,6.2,6.3c-0.7,0.3-1.5,0.9-2.3,1.6C359.9,23.3,359.2,23.9,358.7,24.5z"/>
		<path class="st0" d="M367.1,43V6.9h15.5v14.3h-10.9V43C371.7,43,367.1,43,367.1,43z M371.8,12.3h6.3v-2.1h-6.3V12.3z M371.8,17.7
			h6.3v-2.2h-6.3V17.7z M376.7,43c-0.8-0.9-1.8-1.9-3.1-2.7c2.1-1.4,3.5-3.4,4.1-6.3h-4.1V30h4.2v-3h-3.5v-3.8h19.5V27H390v3h4.5V34
			H390v8.3h-4.2V34h-3.9c-0.3,1.7-0.7,3.3-1.5,4.7C379.5,40.5,378.3,41.9,376.7,43z M382,30h3.8v-3H382V30z M392.7,42.9
			c-0.1-0.7-0.3-1.5-0.5-2.4c-0.3-0.9-0.6-1.7-0.9-2.3c2,0.1,3.4,0.1,4.4,0c0.6,0,0.9-0.3,0.9-0.8V21.3h-11.1V6.9h15.8v30.5
			c0,1.3-0.2,2.2-0.4,2.9c-0.3,0.7-0.8,1.3-1.5,1.6s-1.5,0.6-2.7,0.8C395.7,42.9,394.4,42.9,392.7,42.9z M389.9,12.3h6.5v-2.1h-6.5
			V12.3z M389.9,17.8h6.5v-2.3h-6.5V17.8z"/>
	</g>
	<line class="st1" x1="101.6" y1="25" x2="-0.1" y2="25"/>
	<line class="st1" x1="520.3" y1="25" x2="418.5" y2="25"/>
</g>
</svg>
