<?xml version="1.0" encoding="UTF-8"?><svg xmlns="http://www.w3.org/2000/svg" viewBox="0 0 536.53 218.32"><defs><style>.d{fill:#fff;}.e{fill:none;stroke:#fff;stroke-miterlimit:10;stroke-width:5.04px;}</style></defs><g id="a"/><g id="b"><g id="c"><g><g><path class="d" d="M87.27,84.76v-27.27h-17.11v4.63h-13.01V15.33h30.13V.09h13.73V15.33h30.84V61.68h-13.64v-4.19h-17.2v27.27h-13.73Zm-17.11-40.02h17.11V28.08h-17.11v16.67Zm30.84,0h17.2V28.08h-17.2v16.67Z"/><path class="d" d="M174.35,84.76v-27.54c-2.67,6-5.29,10.7-7.84,14.08-1.13-3.57-3.09-7.72-5.88-12.48,4.4-5.17,8.41-12.39,12.03-21.66h-10.96v-12.03h12.66v-8.29c-3.92,.59-6.83,.98-8.73,1.16-.48-2.91-1.6-6.24-3.39-9.98,11.17-1.66,20.83-4.13,28.97-7.4l7.04,10.61c-3.45,1.19-7.22,2.26-11.32,3.21v10.7h10.96v12.03h-10.96v.27c1.9,1.6,5.62,5.47,11.14,11.59l-7.4,10.16c-1.01-2.26-2.26-4.72-3.74-7.4v32.98h-12.57Zm49.56-.09v-19.79l-25.76,4.72-2.05-12.39,27.81-4.99V0h12.75V50l8.02-1.43,1.96,12.21-9.98,1.78v22.1h-12.75Zm-12.57-34.76c-2.56-3.98-7.01-8.67-13.37-14.08l8.29-7.4c6.77,5.23,11.44,9.63,13.99,13.19l-8.91,8.29Zm2.5-23.71c-2.38-4.04-6.63-8.7-12.75-13.99l8.47-7.22c6.48,5.23,10.93,9.63,13.37,13.19l-9.09,8.02Z"/><path class="d" d="M279.52,85.12c-.89-1.67-2.05-3.48-3.48-5.44-1.55-2.02-2.94-3.62-4.19-4.81,5.47-2.85,10.04-7.37,13.73-13.55l-2.5-1.96-.54,2.14-10.52-5.53c1.72-6.42,3.71-15.27,5.97-26.56h-6.15v-11.94h8.38c.77-4.22,1.69-10.01,2.76-17.38l12.12,1.25c-1.01,5.7-1.99,11.08-2.94,16.13h5.79l2.23-.27,7.66,1.25c-.89,16.52-3.21,29.74-6.95,39.66,4.34,3.62,7.46,6.72,9.36,9.27l-7.75,10.43c-1.49-2.08-3.92-4.81-7.31-8.2-4.04,6.36-9.27,11.53-15.69,15.51Zm11.05-34.85c2.02-5.82,3.5-12.77,4.46-20.86h-5.26c-.71,3.86-1.9,9.48-3.57,16.85-.06,.36-.12,.62-.18,.8,1.54,.95,3.06,2.02,4.55,3.21Zm26.2,34.49c-.65-3.86-2.17-8.08-4.55-12.66,4.93,.24,8.23,.3,9.89,.18,1.25,0,1.87-.5,1.87-1.52v-23.26h-17.65v-12.21h17.65v-9.54h3.83c2.08-2.44,4.28-5.55,6.6-9.36h-25.05V4.55h33.07l2.67-.71,8.38,6.42c-5.88,8.91-11.38,16.01-16.49,21.3v3.74h18.72v12.21h-18.72v23.44c0,3.15-.36,5.55-1.07,7.22-.77,1.84-2.08,3.27-3.92,4.28-3.27,1.66-8.35,2.44-15.24,2.32Z"/><path class="d" d="M384.15,71.75l-4.37-12.92c2.97-1.01,6.36-2.23,10.16-3.65v-22.01h-8.02v-12.12h8.02V1.51h12.03V21.03h7.31v12.12h-7.31v17.29l7.13-2.94,2.85,11.5c-5.05,2.44-12.71,5.97-22.99,10.61-2.2,.95-3.8,1.66-4.81,2.14Zm25.4,13.46c-.59-1.6-1.59-3.52-2.98-5.75-1.4-2.23-2.72-3.97-3.97-5.21,6.36-1.19,10.96-2.82,13.81-4.9,2.38-1.72,3.98-4.13,4.81-7.22h-6.95v-29.23h46.79v29.23h-10.16v8.74c0,1.19,.07,1.93,.22,2.23,.15,.3,.52,.45,1.11,.45h2.32c.59,0,1.01-.42,1.25-1.25,.24-.83,.41-2.73,.53-5.7,1.07,.83,2.7,1.69,4.9,2.58,2.08,.89,3.98,1.52,5.71,1.87-.54,5.17-1.66,8.73-3.39,10.7-1.55,1.78-4.07,2.67-7.58,2.67h-5.97c-4.63,0-7.72-1.01-9.27-3.03-1.43-1.78-2.14-5.23-2.14-10.34v-8.91h-4.63c-1.01,5.82-3.12,10.4-6.33,13.73-3.8,4.04-9.83,7.16-18.09,9.36Zm.54-55.08v-10.43h10.16c-.53-1.84-1.07-3.33-1.6-4.46l1.78-.36h-8.91V4.99h18.54V.45h12.75V4.99h20.5V14.88h-7.58c-.3,.59-.71,1.4-1.25,2.41-.59,1.13-1.01,1.93-1.25,2.41h11.5v10.43h-54.64Zm16.31,13.73h22.02v-3.21h-22.02v3.21Zm0,10.52h22.02v-3.3h-22.02v3.3Zm6.15-34.67h8.29c.06-.18,.15-.45,.27-.8,.71-1.78,1.19-3.12,1.43-4.01h-11.68c.77,1.66,1.34,3.27,1.69,4.81Z"/></g><g><path class="d" d="M.69,213.57v-4.67c5.9-5.27,10.2-9.69,12.91-13.24,3.11-4.07,4.67-7.58,4.67-10.55,0-2.05-.54-3.66-1.62-4.83-1.08-1.17-2.57-1.76-4.48-1.76-2.45,0-4.95,1.39-7.47,4.18l-4.4-4.4c1.98-2.09,3.9-3.61,5.77-4.56,2.12-1.06,4.5-1.59,7.14-1.59,3.85,0,6.94,1.15,9.29,3.43,2.34,2.29,3.52,5.32,3.52,9.09,0,6.19-4.51,13.7-13.52,22.53,2.71-.29,4.91-.44,6.59-.44h8.85v6.81H.69Z"/><path class="d" d="M45.3,214.34c-4.18,0-7.58-1.63-10.22-4.89-2.93-3.66-4.4-8.88-4.4-15.66,0-7.14,1.59-12.66,4.78-16.54,2.82-3.41,6.47-5.11,10.93-5.11s8.04,1.54,11.04,4.62l-4.29,4.83c-.73-.84-1.67-1.54-2.8-2.09-1.17-.59-2.33-.88-3.46-.88-2.53,0-4.54,1.01-6.04,3.02-1.72,2.31-2.66,5.86-2.8,10.66,1.06-1.32,2.4-2.38,4.01-3.19,1.54-.77,2.99-1.15,4.34-1.15,3.55,0,6.36,1.04,8.41,3.13,2.16,2.24,3.24,5.46,3.24,9.67s-1.26,7.36-3.79,9.89c-2.38,2.45-5.37,3.68-8.96,3.68Zm-.16-6.1c1.58,0,2.88-.62,3.9-1.87,1.06-1.35,1.59-3.21,1.59-5.58s-.51-4.17-1.54-5.41c-1.03-1.13-2.44-1.7-4.23-1.7-2.56,0-4.78,1.43-6.65,4.29,.7,6.85,3,10.28,6.92,10.28Z"/><path class="d" d="M72.72,214.34c-5.46,0-10.04-1.85-13.74-5.55l3.74-5.17c2.82,2.75,5.81,4.12,8.96,4.12,2.16,0,3.88-.64,5.17-1.92,1.36-1.35,2.03-3.2,2.03-5.55s-.62-4.16-1.87-5.44c-1.25-1.28-2.91-1.92-5-1.92-1.17,0-2.2,.16-3.08,.49-.77,.29-1.78,.84-3.02,1.65l-3.68-2.42,1.1-19.73h21.76v6.76h-14.78l-.77,8.63c1.61-.77,3.24-1.15,4.89-1.15,3.63,0,6.57,1.04,8.85,3.13,2.45,2.31,3.68,5.57,3.68,9.78s-1.43,7.88-4.29,10.55c-2.67,2.49-5.99,3.74-9.95,3.74Z"/><path class="d" d="M89.53,213.57v-4.67c5.9-5.27,10.2-9.69,12.91-13.24,3.11-4.07,4.67-7.58,4.67-10.55,0-2.05-.54-3.66-1.62-4.83-1.08-1.17-2.57-1.76-4.48-1.76-2.45,0-4.95,1.39-7.47,4.18l-4.4-4.4c1.98-2.09,3.9-3.61,5.77-4.56,2.12-1.06,4.5-1.59,7.14-1.59,3.85,0,6.94,1.15,9.29,3.43,2.34,2.29,3.52,5.32,3.52,9.09,0,6.19-4.51,13.7-13.52,22.53,2.71-.29,4.91-.44,6.59-.44h8.85v6.81h-27.25Z"/><path class="d" d="M119.48,200.71v-5.77h15v5.77h-15Z"/><path class="d" d="M149.43,214.34c-5.75,0-10.29-1.89-13.63-5.66l3.79-5.11c2.86,2.78,5.88,4.18,9.07,4.18,2.09,0,3.75-.5,5-1.48,1.28-.99,1.92-2.38,1.92-4.18,0-2.16-.77-3.74-2.31-4.73-1.76-1.17-4.73-1.76-8.9-1.76v-5.82c6.59,0,9.89-2.07,9.89-6.21,0-1.61-.48-2.86-1.43-3.74-.95-.88-2.29-1.34-4.01-1.37-2.53,.04-5.09,1.25-7.69,3.63l-4.12-4.95c3.81-3.33,7.87-5,12.2-5,3.99,0,7.18,.93,9.56,2.8,2.42,1.91,3.63,4.58,3.63,8.02,0,4.4-2.27,7.49-6.81,9.29v.27c2.42,.66,4.36,1.81,5.82,3.46,1.54,1.79,2.31,3.97,2.31,6.54,0,3.63-1.41,6.52-4.23,8.68-2.67,2.09-6.03,3.13-10.06,3.13Z"/><path class="d" d="M174.21,213.57c.37-7.33,1.3-13.39,2.8-18.19,1.58-5.24,4.25-10.48,8.02-15.71h-18.3v-6.76h27.03v4.89c-4.43,5.42-7.42,10.82-8.96,16.21-1.25,4.32-2.05,10.84-2.42,19.56h-8.19Z"/><path class="d" d="M208,213.57v-32.03l-7.25,3.85-3.24-5.22,12.53-7.31h5.93v40.72h-7.97Z"/><path class="d" d="M234.87,213.57v-32.03l-7.25,3.85-3.24-5.22,12.53-7.31h5.93v40.72h-7.97Z"/></g><g><path class="d" d="M299.92,195.2c-7.72,0-14.2-2.62-19.43-7.85l5.29-7.31c3.99,3.89,8.21,5.83,12.67,5.83,3.06,0,5.49-.91,7.31-2.72,1.92-1.92,2.88-4.53,2.88-7.85s-.88-5.88-2.64-7.7c-1.76-1.81-4.12-2.72-7.07-2.72-1.66,0-3.11,.23-4.35,.7-1.09,.41-2.51,1.19-4.28,2.33l-5.21-3.42,1.55-27.91h30.78v9.56h-20.91l-1.09,12.2c2.28-1.09,4.59-1.63,6.92-1.63,5.13,0,9.3,1.48,12.52,4.43,3.47,3.26,5.21,7.88,5.21,13.84s-2.02,11.14-6.06,14.92c-3.78,3.53-8.47,5.29-14.07,5.29Z"/><path class="d" d="M343.76,195.2c-7.72,0-14.2-2.62-19.43-7.85l5.29-7.31c3.99,3.89,8.21,5.83,12.67,5.83,3.06,0,5.49-.91,7.31-2.72,1.92-1.92,2.88-4.53,2.88-7.85s-.88-5.88-2.64-7.7c-1.76-1.81-4.12-2.72-7.07-2.72-1.66,0-3.11,.23-4.35,.7-1.09,.41-2.51,1.19-4.28,2.33l-5.21-3.42,1.55-27.91h30.78v9.56h-20.91l-1.09,12.2c2.28-1.09,4.59-1.63,6.92-1.63,5.13,0,9.3,1.48,12.52,4.43,3.47,3.26,5.21,7.88,5.21,13.84s-2.02,11.14-6.06,14.92c-3.78,3.53-8.47,5.29-14.07,5.29Z"/><path class="d" d="M389.01,195.2c-5.49,0-10.07-1.45-13.72-4.35-3.65-2.9-5.48-6.58-5.48-11.04,0-6.48,3.29-11.48,9.87-15v-.39c-5.08-3.63-7.62-8.19-7.62-13.68,0-4.56,1.63-8.24,4.9-11.04,3.21-2.75,7.36-4.12,12.44-4.12s9.13,1.4,12.17,4.2c3.03,2.8,4.55,6.5,4.55,11.12,0,2.64-.75,5.21-2.25,7.7-1.3,2.13-3.01,3.94-5.13,5.44v.39c6.43,3.47,9.64,8.6,9.64,15.39,0,4.41-1.76,8.06-5.29,10.96-3.63,2.95-8.32,4.43-14.07,4.43Zm.31-8.08c2.49,0,4.48-.67,5.99-2.02,1.61-1.35,2.41-3.24,2.41-5.67,0-2.75-1.19-5.03-3.57-6.84-1.66-1.29-4.72-2.85-9.17-4.66-1.61,1.3-2.88,2.85-3.81,4.66-.99,1.92-1.48,3.91-1.48,5.99,0,2.54,.93,4.61,2.8,6.22,1.81,1.55,4.09,2.33,6.84,2.33Zm3.34-25.89c2.75-2.9,4.12-6.11,4.12-9.64,0-2.38-.67-4.31-2.02-5.79-1.35-1.48-3.21-2.21-5.6-2.21-2.02,0-3.68,.62-4.97,1.87-1.35,1.3-2.02,3.06-2.02,5.29,0,2.49,.98,4.61,2.96,6.37,1.55,1.35,4.07,2.72,7.54,4.12Z"/></g><path class="e" d="M269.86,117.05h257.02c3.94,0,7.14,3.2,7.14,7.14v84.48c0,3.94-3.2,7.14-7.14,7.14H269.86c-3.94,0-7.14-3.2-7.14-7.14V124.19c0-3.94,3.2-7.14,7.14-7.14Z"/><path class="d" d="M486.01,191.97c-.94-.63-2.19-1.28-3.75-1.93,.86-1.74,1.46-4.18,1.82-7.31,.28-2.37,.44-5.47,.49-9.28l4.13,.3c-.03,1.16-.09,2.79-.19,4.89,.61,1.82,1.39,3.27,2.35,4.36v-11.78h-7.58v-3.9h6.67v-3.56h-5.64v-3.86h5.64v-3.71h4.21v3.71h5.61v3.86h-5.61v3.56h6.55v3.9h-5.72v4.09h5.38v3.9h-5.38v6.25c1.69,.48,4.13,.72,7.31,.72,7.07,.1,12.51,.06,16.33-.11-.33,.5-.67,1.2-1.02,2.08-.33,.88-.55,1.67-.68,2.35h-14.62c-3.79,0-6.72-.33-8.79-.98-2.42-.76-4.33-2.15-5.72-4.17-.4,2.65-1,4.86-1.78,6.63Zm21.21-8.11c-2.1,0-3.52-.4-4.28-1.21-.76-.81-1.14-2.39-1.14-4.74v-19.89h14.47v14.17h-10.12v5.72c0,.83,.1,1.36,.3,1.59,.2,.23,.68,.34,1.44,.34h4.58c.63,0,1.05-.27,1.27-.81,.21-.54,.36-1.67,.44-3.39,1.09,.81,2.4,1.38,3.94,1.7-.25,2.5-.75,4.21-1.48,5.13-.73,.92-2,1.38-3.79,1.38h-5.64Zm-1.06-15.68h5.72v-6.17h-5.72v6.17Z"/><path class="d" d="M429.24,146.08v-2.72h-12.81v-6.4h12.81v-3.23h7.57v3.23h15.27v-3.23h7.57v3.23h13v6.4h-13v2.72h-7.57v-2.72h-15.27v2.72h-7.57Zm-10.28,48.06v-23.93h21.86v-2.59h-17.85v-20.63h43.6v20.63h-18.43v2.59h22.96v16.95c0,1.64-.15,2.87-.45,3.69-.39,.91-1.06,1.62-2,2.13-.86,.47-2.01,.78-3.43,.91-.91,.09-2.44,.13-4.59,.13-.26-1.47-.75-3.08-1.49-4.85l-3.36,.84c-.13-.99-.39-2.07-.78-3.23-3.84,.26-9.46,.62-16.88,1.1-4.01,.22-6.88,.39-8.6,.52l-.58-6.47c1.42-.04,3.88-.15,7.37-.32,1.98-.09,3.49-.15,4.53-.19v-4.85h-14.55v17.59h-7.31Zm11.38-39.2h10.48v-2.91h-10.48v2.91Zm0,7.7h10.48v-2.98h-10.48v2.98Zm17.79-7.7h10.67v-2.91h-10.67v2.91Zm0,7.7h10.67v-2.98h-10.67v2.98Zm0,18.43l4.72-.26c-.47-1.08-.97-2.07-1.49-2.98l5.17-1.29h-8.41v4.53Zm13.52,6.86h1.1c.6-.04,.91-.32,.91-.84v-10.54h-6.53c2.33,3.97,3.84,7.76,4.53,11.38Z"/><g><path class="d" d="M3.68,152.25c-1.21-.85-2.44-1.52-3.68-2.01,.88-1.76,1.5-4.18,1.86-7.28,.26-2.35,.4-5.48,.43-9.38l4.03,.27c0,1.24-.05,3-.16,5.27,.59,1.78,1.32,3.15,2.17,4.11v-11.58H1.05v-4.07H7.59v-3.56H1.94v-3.99H7.59v-3.91h4.26v3.91h5.5v3.99h-5.5v3.56h6.16v.97c2.4-1.52,3.94-3.93,4.61-7.21h-4.15v-3.84h17.09c0,.52-.01,1.05-.04,1.59-.13,3.31-.31,5.7-.54,7.17-.21,1.6-.54,2.66-1.01,3.18-.57,.7-1.43,1.14-2.6,1.32-1.08,.13-2.52,.15-4.3,.08-.05-1.39-.43-2.69-1.12-3.88,.9,.1,1.95,.16,3.14,.16,.49,0,.87-.13,1.12-.39,.36-.54,.63-2.34,.81-5.38h-4.11c-.88,4.8-3.05,8.3-6.51,10.5-.52-.52-1.32-1.17-2.4-1.98v1.78h-5.58v4.22h5.11v3.99h-5.11v6.12c1.78,.59,4.42,.89,7.9,.89,7.54,.1,13.13,.05,16.78-.16-.78,1.27-1.36,2.79-1.74,4.57h-15.03c-3.88,0-6.87-.34-8.99-1.01-2.48-.8-4.44-2.23-5.89-4.3-.44,2.46-1.03,4.55-1.78,6.28Zm15.81-7.75v-12.2h15.15v12.2h-15.15Zm4.3-3.68h6.28v-4.8h-6.28v4.8Z"/><path class="d" d="M43.55,152.18v-19.8c-.85,1.11-1.73,2.14-2.63,3.1-.23-.62-.59-1.42-1.08-2.4-.54-1.06-1-1.85-1.36-2.36,1.76-1.76,3.42-3.93,4.98-6.51,1.56-2.58,2.83-5.26,3.82-8.02l4.38,1.39c-.98,2.61-2.22,5.27-3.72,7.98v26.62h-4.38Zm7.67,.04v-24.29h4.26v18.6h19.76v3.95h-19.76v1.74h-4.26Zm6.59-7.71v-18.83h3.72c.05-.44,.13-1.15,.23-2.13h-9.65v-3.95h9.96c.1-1.6,.17-2.76,.19-3.49l4.61,.19c-.05,.7-.16,1.8-.31,3.29h8.45v3.95h-8.87c-.03,.21-.08,.53-.15,.97-.05,.52-.1,.9-.16,1.16h7.59v18.83h-15.61Zm4.26-13.52h6.9v-1.98h-6.9v1.98Zm0,5.08h6.9v-1.98h-6.9v1.98Zm0,5.11h6.9v-2.01h-6.9v2.01Z"/><path class="d" d="M81.91,152.21v-19.37c-.8,1.21-1.6,2.27-2.4,3.18-.21-.59-.53-1.41-.97-2.44-.49-1.11-.9-1.95-1.24-2.52,1.55-1.78,3.01-4.02,4.38-6.7,1.34-2.63,2.44-5.38,3.29-8.25l4.26,1.28c-.8,2.45-1.78,4.96-2.94,7.52v27.31h-4.38Zm28.9,.16c-2.22-1.34-5-2.58-8.33-3.72l2.48-2.13h-7.59l2.56,1.82c-2.38,1.68-5.66,3-9.84,3.95-.7-1.21-1.51-2.26-2.44-3.14,3.15-.59,5.89-1.47,8.21-2.63h-5.46v-14.45h21.93v14.45h-5.73c3.41,1.16,6.13,2.25,8.17,3.25l-3.95,2.6Zm-21-21.62v-7.98h6.35v-1.67h-7.05v-3.33h24.76v3.33h-7.83v1.67h6.66v7.98h-22.9Zm3.99-2.67h2.36v-2.63h-2.36v2.63Zm.85,8.02h13.17v-1.4h-13.17v1.4Zm0,3.87h13.17v-1.39h-13.17v1.39Zm0,3.95h13.17v-1.47h-13.17v1.47Zm5.15-21.15h2.52v-1.67h-2.52v1.67Zm0,5.31h2.52v-2.63h-2.52v2.63Zm6.24,0h2.48v-2.63h-2.48v2.63Z"/><path class="d" d="M126.89,138.19c-1.01,0-1.85-.35-2.54-1.07-.69-.71-1.03-1.58-1.03-2.62s.34-1.95,1.03-2.67c.68-.72,1.53-1.08,2.54-1.08s1.85,.36,2.52,1.08c.67,.72,1.01,1.62,1.01,2.67s-.34,1.91-1.01,2.62c-.67,.71-1.51,1.07-2.52,1.07Z"/><path class="d" d="M140.45,152.52v-3.98c5.03-4.5,8.7-8.26,11.01-11.29,2.65-3.47,3.98-6.47,3.98-9,0-1.75-.46-3.12-1.38-4.12-.92-1-2.19-1.5-3.82-1.5-2.09,0-4.22,1.19-6.37,3.56l-3.75-3.75c1.69-1.78,3.33-3.08,4.92-3.89,1.81-.91,3.84-1.36,6.09-1.36,3.28,0,5.92,.98,7.92,2.93,2,1.95,3,4.54,3,7.75,0,5.28-3.84,11.68-11.53,19.21,2.31-.25,4.19-.38,5.62-.38h7.54v5.81h-23.24Z"/><path class="d" d="M168.32,141.56v-4.92h12.79v4.92h-12.79Z"/><path class="d" d="M196.2,153.18c-4.9,0-8.78-1.61-11.62-4.83l3.23-4.36c2.44,2.37,5.01,3.56,7.73,3.56,1.78,0,3.2-.42,4.26-1.26,1.09-.84,1.64-2.03,1.64-3.56,0-1.84-.66-3.19-1.97-4.03-1.5-1-4.03-1.5-7.59-1.5v-4.97c5.62,0,8.43-1.76,8.43-5.29,0-1.37-.41-2.44-1.22-3.19-.81-.75-1.95-1.14-3.42-1.17-2.16,.03-4.34,1.06-6.56,3.09l-3.51-4.22c3.25-2.84,6.71-4.26,10.4-4.26,3.4,0,6.12,.8,8.15,2.39,2.06,1.62,3.09,3.91,3.09,6.84,0,3.75-1.94,6.39-5.81,7.92v.23c2.06,.56,3.72,1.55,4.97,2.95,1.31,1.53,1.97,3.39,1.97,5.58,0,3.09-1.2,5.56-3.61,7.4-2.28,1.78-5.14,2.67-8.57,2.67Z"/><path class="d" d="M233.93,152.18c-.05-1.34-.45-2.62-1.2-3.83,1.42,.15,2.83,.23,4.22,.23,.59,0,1.05-.12,1.36-.35,.41-.39,.75-1.55,1.01-3.49h-8.83c-.83,1.73-1.98,3.19-3.45,4.38-1.65,1.29-3.81,2.34-6.47,3.14-.21-.54-.56-1.16-1.05-1.86-.49-.7-.97-1.27-1.43-1.7-.7,1.34-1.49,2.53-2.36,3.56-.31-.52-.83-1.12-1.55-1.8-.72-.68-1.37-1.18-1.94-1.49,1.81-2.19,3.05-5.01,3.72-8.45,.46-2.3,.7-5.24,.7-8.83v-13.83l3.91,.93c9.22-.39,16.2-1.06,20.92-2.01l3.06,3.49c-5.97,1.16-13.73,1.89-23.29,2.17v1.43h24.29v9.34h-11.24v2.36h13.52v3.6h-15.85c-.16,.9-.28,1.6-.39,2.09h12.51c-.03,.52-.06,1.05-.12,1.59-.34,4.47-.96,7.15-1.86,8.06-.75,.72-1.8,1.12-3.14,1.2-.98,.13-2.67,.16-5.08,.08Zm-15.81-3.56c3.2-.85,5.53-2.1,6.97-3.76,1.14-1.32,1.9-3.22,2.29-5.7h-6.55c-.49,3.67-1.39,6.82-2.71,9.45Zm3.02-13.06h8.6v-2.36h-8.49c0,.18-.01,.44-.04,.77-.03,.7-.05,1.23-.08,1.59Zm.12-5.85h19.76v-2.29h-19.76v2.29Z"/></g></g></g></g></svg>