<?xml version="1.0" encoding="utf-8"?>
<!-- Generator: Adobe Illustrator 26.1.0, SVG Export Plug-In . SVG Version: 6.00 Build 0)  -->
<svg version="1.1" id="a" xmlns="http://www.w3.org/2000/svg" xmlns:xlink="http://www.w3.org/1999/xlink" x="0px" y="0px"
	 viewBox="0 0 16.5 14.4" style="enable-background:new 0 0 16.5 14.4;" xml:space="preserve">
<style type="text/css">
	.st0{fill-rule:evenodd;clip-rule:evenodd;fill:#FFFFFF;}
</style>
<path class="st0" d="M7.2,6.7L7.2,6.7c0,0-2.6,0.9-6.2,0.5c0,0-1.7,0-0.4,0.7c0,0-0.2,0.8,1.3,0.7c0,0-1.3,0.8,0.4,0.6
	c0,0,0,0.6,1.2,0.2c0,0,0.2,0.3,0.7,0.1c0,0,0.3,0.6,0.9,0.1c0,0,0.1,0.4,1.6,0.2c0,0,0.6,0.5,1.2,0H8c0,0,0.1,0.4,0.3,0.7
	c0,0,0,0.2-0.2,0.4s-0.9,0.9-0.5,1c0,0,0.2,0,0.3,0.2c0,0,0,0.6-0.1,0.8c0,0.3-0.2,0.3-0.2,0.5s0,0.5,0.3,0.6c0,0,0,0,0.3,0
	c0,0,0.5,0.2,0.8-0.5c0,0,0.2-0.4,0.3,0c0,0,0,0.6,0.7,0.7c0,0,0,0,0-0.2c0,0,0.2,0,0.3,0c0,0,0.4,0.3,0.6,0
	c0.3-0.4,0.3-0.5,0.3-0.7c0,0,0.2,0.5,0.5,0.3c0.3-0.1,0.5-0.1,0.6-0.3c0-0.2,0.1-0.4,0-0.6c0-0.2,0-0.4-0.1-0.4c0,0,0.2,0.2,0.5,0
	c0.3-0.1,0.3-0.1,0.4-0.3c0.1-0.1,0.2-0.3,0.2-0.3s0-0.2-0.1-0.4c-0.2-0.2-0.9-0.8-0.9-0.8s0.3-0.3-0.2-0.5
	c-0.5-0.3-0.9-0.4-0.9-0.4S11,9.5,11,9.4c0.2-0.5,0-0.8,0.4-1.3c0,0,0.2,0.2,0.4,0c0,0,1,0.5,0.6-0.2c0.1,0,0-0.2,0-0.3
	c0,0,0-0.2,0.1,0c0.2,0.2,0.5,0.2,0.4-0.2c0,0-0.1-0.5,0.1-0.3c0,0,0.4,0.4,0.6,0.2c0.2-0.2,0-0.4,0-0.4s0.3,0,0.3-0.3
	c0,0,0.4,0,0.1-0.5c0,0,0.2,0.1,0.6,0C15,6,15,5.5,14.6,5.5c0,0,0.5-0.2,0-0.5c0,0,0.7-0.2,0.7-0.5V4.4c0,0,0.3-0.3,0.1-0.4
	c0,0,0.4-0.3,0.4-0.6s-0.1-0.3-0.2-0.2c0,0,0.5-0.4,0.6-0.5c0-0.2,0.2-0.4-0.2-0.4c0,0,0.6-0.2,0.7-0.6c0,0,0.1-0.4-0.2-0.3
	c0,0,0.6-0.9,0-0.7c0,0,0.6-1.1-0.2-0.6c-0.7,0.6-1.7,1.3-2.2,1.8s-0.9,0.7-0.9,0.7s0.3-0.7-0.5,0.1c0,0-1.8,1.9-2.7,2.5
	c0,0-0.4,0.5-1,0.3c0,0-0.2-0.3-0.3-0.3c0,0-0.2-0.4-0.5-0.4S7.8,4.8,7.7,5c-0.2,0.3-0.1,0.5,0,0.7c0,0,0.1,0.2,0,0.3
	c0,0-0.2,0-0.2,0.2S7.4,6.6,7.3,6.7L7.2,6.7z"/>
</svg>
